<svg xmlns="http://www.w3.org/2000/svg">
    <symbol id="logo" width="28" height="31" viewBox="0 0 28 31" fill="none" xmlns="http://www.w3.org/2000/svg">
        <path d="M23.7438 17.9904C26.886 18.8794 28.7857 22.2704 26.7581 24.8302C25.8184 26.0166 24.6977 27.0628 23.4267 27.9259C20.5076 29.9083 16.983 30.7981 13.4726 30.4388C9.9623 30.0796 6.69099 28.4943 4.23389 25.9617C1.77678 23.4291 0.291187 20.1113 0.0383106 16.5917C-0.214566 13.0721 0.781464 9.57606 2.85127 6.7182C4.92109 3.86035 7.93216 1.82368 11.3551 0.96629C14.778 0.108904 18.3936 0.485693 21.5662 2.03041C22.9475 2.70295 24.2063 3.57813 25.3059 4.61803C27.6786 6.86172 26.2832 10.4895 23.3004 11.8185L19.925 13.3224C18.8063 13.8208 17.4905 13.1987 16.3894 12.6626C15.718 12.3357 14.9528 12.256 14.2284 12.4374C13.504 12.6189 12.8668 13.0499 12.4287 13.6547C11.9907 14.2595 11.7799 14.9994 11.8334 15.7443C11.8869 16.4891 12.2013 17.1913 12.7213 17.7273C13.2413 18.2632 13.9337 18.5987 14.6766 18.6748C15.4195 18.7508 16.1654 18.5625 16.7832 18.1429C17.7963 17.4549 19.0097 16.6512 20.1881 16.9845L23.7438 17.9904Z" fill="#35AFBF"/>
    </symbol>
    <symbol id="line1" viewBox="0 0 161 103" fill="none" xmlns="http://www.w3.org/2000/svg">
        <path d="M5.84408 102.163L158.863 -41.5645C160.111 -42.7364 160.375 -44.6187 159.498 -46.0886C158.301 -48.0939 155.553 -48.4716 153.859 -46.8637L1.60725 97.6768C-0.4145 99.5961 0.943917 103 3.73164 103C4.51655 103 5.27196 102.701 5.84408 102.163Z" fill="url(#paint0_linear_203_16)" fill-opacity="0.35"/>
        <defs>
        <linearGradient id="paint0_linear_203_16" x1="-26.8567" y1="108.882" x2="124.189" y2="-80.4291" gradientUnits="userSpaceOnUse">
        <stop stop-color="#EAF4F5"/>
        <stop offset="1" stop-color="#35AFBF" stop-opacity="0.06"/>
        </linearGradient>
        </defs>
    </symbol>
    <symbol id="brand" viewBox="0 0 35 21" fill="none" xmlns="http://www.w3.org/2000/svg">
        <path d="M29.2842 10.5109L22.9646 0L20.3614 1.56625L16.2271 4.05125L20.3614 10.9353L25.8192 20.0331H29.2842H35.0002L29.2842 10.5109Z" fill="white"/>
        <path d="M20.3611 16.2882L14.8551 7.12695L8.33201 11.0535L8.10889 11.1848L8.33201 11.5545L13.4267 20.0332H20.3611H22.6011L20.3611 16.2882Z" fill="white"/>
        <path d="M8.33219 16.9008L6.74406 14.2627L0 18.3139L1.03031 20.0333H8.33219H10.2113L8.33219 16.9008Z" fill="white"/>
    </symbol>
    <symbol id="play" viewBox="0 0 26 31" fill="none" xmlns="http://www.w3.org/2000/svg">
        <path d="M25 13.7679C26.3333 14.5378 26.3333 16.4622 25 17.232L3.25 29.7894C1.91666 30.5592 0.249999 29.597 0.249999 28.0574L0.25 2.94263C0.25 1.40303 1.91667 0.44078 3.25 1.21058L25 13.7679Z" fill="#35AFBF"/>
    </symbol>
    <symbol id="card1" viewBox="0 0 30 30" fill="none" xmlns="http://www.w3.org/2000/svg">
        <path d="M22.9102 12.3633H24.668V15.8789H22.9102V12.3633Z" fill="white"/>
        <path d="M23.7891 7.08984C24.2745 7.08984 24.668 6.69634 24.668 6.21094C24.668 5.72553 24.2745 5.33203 23.7891 5.33203C23.3037 5.33203 22.9102 5.72553 22.9102 6.21094C22.9102 6.69634 23.3037 7.08984 23.7891 7.08984Z" fill="white"/>
        <path d="M29.1211 0H0.878906C0.393105 0 0 0.393105 0 0.878906V15C0 15.4858 0.393105 15.8789 0.878906 15.8789H21.1523V11.4844C21.1523 10.9986 21.5454 10.6055 22.0312 10.6055H25.5469C26.0327 10.6055 26.4258 10.9986 26.4258 11.4844V15.8789H29.1211C29.6069 15.8789 30 15.4858 30 15V0.878906C30 0.393105 29.6069 0 29.1211 0ZM18.5156 7.08984H16.7578C14.334 7.08984 12.3633 9.06135 12.3633 11.4844C12.3633 11.9702 11.9702 12.3633 11.4844 12.3633C10.9986 12.3633 10.6055 11.9702 10.6055 11.4844C10.6055 10.0304 9.4227 8.84766 7.96875 8.84766C6.5148 8.84766 5.33203 10.0304 5.33203 11.4844C5.33203 11.9702 4.93893 12.3633 4.45312 12.3633C3.96732 12.3633 3.57422 11.9702 3.57422 11.4844C3.57422 9.06135 5.5449 7.08984 7.96875 7.08984C9.3177 7.08984 10.5111 7.71352 11.3177 8.6727C12.3432 6.69844 14.3839 5.33203 16.7578 5.33203H18.5156C19.0014 5.33203 19.3945 5.72514 19.3945 6.21094C19.3945 6.69674 19.0014 7.08984 18.5156 7.08984ZM23.7891 8.84766C22.3351 8.84766 21.1523 7.66488 21.1523 6.21094C21.1523 4.75699 22.3351 3.57422 23.7891 3.57422C25.243 3.57422 26.4258 4.75699 26.4258 6.21094C26.4258 7.66488 25.243 8.84766 23.7891 8.84766Z" fill="white"/>
        <path d="M0.878906 28.2422H22.9102V29.1211C22.9102 29.6069 23.3033 30 23.7891 30C24.2749 30 24.668 29.6069 24.668 29.1211V22.3952L26.1683 20.8949C26.3331 20.7301 26.4258 20.5069 26.4258 20.2734V18.5156C26.4258 18.0298 26.0327 17.6367 25.5469 17.6367H22.0312C21.5454 17.6367 21.1523 18.0298 21.1523 18.5156V20.2734C21.1523 20.5069 21.245 20.7301 21.4099 20.8948L22.9102 22.3952V22.9102H0.878906C0.393105 22.9102 0 23.3033 0 23.7891V27.3633C0 27.8491 0.393105 28.2422 0.878906 28.2422Z" fill="white"/>
        <path d="M29.1211 22.9102H26.4258V28.2422H29.1211C29.6069 28.2422 30 27.8491 30 27.3633V23.7891C30 23.3033 29.6069 22.9102 29.1211 22.9102Z" fill="white"/>
    </symbol>
    <symbol id="card2" viewBox="0 0 33 33" fill="none" xmlns="http://www.w3.org/2000/svg">
        <path d="M18.2069 27.5164V25.2478H0V27.5256C0 29.5884 1.66689 31.2931 3.72995 31.2931H20.0419C19.8855 31.1508 19.7346 31.0261 19.5921 30.8833C18.7011 29.9896 18.2027 28.7783 18.2069 27.5164Z" fill="white"/>
        <path d="M12.8908 13.7634L15.5328 15.5773L18.1851 13.7634C18.9105 13.2687 19.4867 12.1521 19.4867 11.2742V7.52594L15.5395 5.57373L11.5923 7.52094V11.2742C11.5923 12.1518 12.1651 13.2687 12.8908 13.7634ZM13.4856 10.2207C13.6809 10.0274 13.9962 10.0288 14.1896 10.2244L14.983 11.0256L16.8927 9.11615C17.0872 8.92168 17.4025 8.92168 17.597 9.11643C17.7915 9.3109 17.7912 9.62622 17.5967 9.82069L15.3333 12.0852C15.24 12.1788 15.1136 12.2321 14.9814 12.2327H14.9802C14.8474 12.2318 14.7205 12.1782 14.6277 12.0832L13.482 10.9258C13.2886 10.73 13.2903 10.4147 13.4856 10.2207Z" fill="white"/>
        <path d="M30.3611 1.70679H30.3453C28.8826 1.70679 27.666 2.92889 27.666 4.39242V8.96109H33.0001V4.38353C33.0067 2.91723 31.8274 1.72096 30.3611 1.70679Z" fill="white"/>
        <path d="M7.64322 1.70679C6.25998 1.70679 5.13427 2.81749 5.13427 4.1799L4.9873 24.252H18.7047C18.9839 24.2632 19.2042 24.4935 19.2026 24.7732V27.5164C19.1976 29.5903 20.8694 31.278 22.9431 31.293H22.9556C25.0217 31.278 26.6844 29.5911 26.6702 27.525V4.39326C26.6702 3.34673 27.1411 2.41799 27.8487 1.70679L7.64322 1.70679ZM10.5969 7.21031C10.5906 7.02306 10.6931 6.84887 10.86 6.7633L15.3184 4.57217C15.4554 4.50439 15.616 4.50439 15.7529 4.57217L20.2194 6.76941C20.3863 6.85498 20.4888 7.02889 20.4827 7.21642V11.2742C20.4827 12.4818 19.7457 13.9057 18.7475 14.586L15.8227 16.5916C15.7407 16.648 15.6435 16.6782 15.544 16.6782C15.4448 16.6782 15.3481 16.6482 15.2667 16.5916L12.3333 14.586C11.3357 13.9054 10.5969 12.4816 10.5969 11.2742V7.21031ZM22.6163 21.9762H8.96117C8.68614 21.9762 8.46333 21.7534 8.46333 21.4783C8.46333 21.2033 8.68614 20.9805 8.96117 20.9805H22.6163C22.8914 20.9805 23.1142 21.2033 23.1142 21.4783C23.1142 21.7534 22.8914 21.9762 22.6163 21.9762ZM22.6163 19.3447H8.96117C8.68614 19.3447 8.46333 19.1219 8.46333 18.8469C8.46333 18.5718 8.68614 18.349 8.96117 18.349H22.6163C22.8914 18.349 23.1142 18.5718 23.1142 18.8469C23.1142 19.1219 22.8914 19.3447 22.6163 19.3447Z" fill="white"/>
    </symbol>
    <symbol id="card3" viewBox="0 0 38 38" fill="none" xmlns="http://www.w3.org/2000/svg">
        <path d="M17.8832 7.87476C12.6139 8.40035 8.41134 12.6029 7.88574 17.8722H12.2981V20.1062H7.88574C8.41134 25.3755 12.6139 29.5781 17.8832 30.1037V25.6913H20.1172V30.1037C25.3865 29.5781 29.5891 25.3755 30.1147 20.1062H25.7023V17.8722H30.1147C29.5891 12.6029 25.3865 8.40035 20.1172 7.87476V12.2871H17.8832V7.87476ZM20.1172 14.5212V18.3915L22.9708 20.2939L21.7316 22.1527L17.8831 19.587V14.5212H20.1172Z" fill="white"/>
        <path d="M34.2167 7.62818L37.3139 7.8171L37.4499 5.58717L30.5974 5.16925L30.1721 11.4621L32.4011 11.6127L32.5671 9.15656C34.6346 12.0017 35.7548 15.422 35.7548 18.9894C35.7548 28.2282 28.2384 35.7446 18.9995 35.7446C9.76069 35.7446 2.24429 28.2282 2.24429 18.9894C2.24429 9.75051 9.76069 2.23411 18.9995 2.23411V0C8.50472 0 0.0102539 8.49305 0.0102539 18.9893C0.0102539 35.7541 20.4292 44.4147 32.4269 32.4166C36.0135 28.83 37.9888 24.0614 37.9888 18.9893C37.9887 14.8551 36.6619 10.8951 34.2167 7.62818Z" fill="white"/>
    </symbol>
    <symbol id="card4" viewBox="0 0 34 28" fill="none" xmlns="http://www.w3.org/2000/svg">
        <path d="M27.3213 26.3854C27.3213 26.7542 27.6203 27.0532 27.9891 27.0532H33.332C33.5091 27.0532 33.679 26.9828 33.8043 26.8576C33.9295 26.7324 33.9999 26.5625 33.9999 26.3853V25.8389H27.3213V26.3854Z" fill="white"/>
        <path d="M33.332 14.9106H27.9891C27.6203 14.9106 27.3213 15.2097 27.3213 15.5785V16.125H33.9998V15.5785C33.9998 15.2097 33.7008 14.9106 33.332 14.9106Z" fill="white"/>
        <path d="M13.9639 19.1607H20.6424H26.1067V17.3394H13.9639V19.1607Z" fill="white"/>
        <path d="M27.9284 2.76775C27.9284 1.76182 27.113 0.946289 26.107 0.946289H7.89275C6.88682 0.946289 6.07129 1.76176 6.07129 2.76775V6.41059H11.2235C12.7364 6.41225 13.9625 7.63831 13.9641 9.15125V16.1249H26.107V15.5784C26.1104 14.565 26.9155 13.7363 27.9284 13.7036V2.76775Z" fill="white"/>
        <path d="M20.0353 20.375H13.9639V22.8035H20.0353V20.375Z" fill="white"/>
        <path d="M33.9998 17.3394H27.3213V24.625H33.9998V17.3394Z" fill="white"/>
        <path d="M0 25.527C0.000664063 26.3697 0.683652 27.0527 1.52635 27.0533H11.2237C12.0663 27.0527 12.7493 26.3697 12.75 25.527V25.2319H0V25.527Z" fill="white"/>
        <path d="M0 24.0178H12.75V23.4106V19.7678V10.6606H0V24.0178Z" fill="white"/>
        <path d="M11.2237 7.625H1.52635C0.683652 7.62566 0.000664063 8.30865 0 9.15135V9.44639H12.75V9.15135C12.7493 8.30865 12.0663 7.62566 11.2237 7.625Z" fill="white"/>
        <path d="M23.071 24.0176H13.9639V25.2319H23.6782V24.6247C23.6781 24.2894 23.4063 24.0176 23.071 24.0176Z" fill="white"/>
    </symbol>
    <symbol id="card5" viewBox="0 0 31 29" fill="none" xmlns="http://www.w3.org/2000/svg">
        <path d="M0 0.876953H3.63281V9.95898H0V0.876953Z" fill="white"/>
        <path d="M27.3672 19.041H31V28.123H27.3672V19.041Z" fill="white"/>
        <path d="M13.6836 9.95898H17.3164V19.041H13.6836V9.95898Z" fill="white"/>
        <path d="M2.72461 17.2246H11.8672V11.7754H2.72461C1.2222 11.7754 0 12.9976 0 14.5C0 16.0024 1.2222 17.2246 2.72461 17.2246Z" fill="white"/>
        <path d="M28.2754 11.7754H19.1328V17.2246H28.2754C29.7778 17.2246 31 16.0024 31 14.5C31 12.9976 29.7778 11.7754 28.2754 11.7754Z" fill="white"/>
        <path d="M28.2754 2.69336H5.44922V8.14258H28.2754C29.7778 8.14258 31 6.92038 31 5.41797C31 3.91556 29.7778 2.69336 28.2754 2.69336Z" fill="white"/>
        <path d="M2.72461 26.3066H25.5508V20.8574H2.72461C1.2222 20.8574 0 22.0796 0 23.582C0 25.0844 1.2222 26.3066 2.72461 26.3066Z" fill="white"/>
    </symbol>
    <symbol id="card6" viewBox="0 0 28 33" fill="none" xmlns="http://www.w3.org/2000/svg">
        <path d="M22.2239 22.1889C21.0137 23.851 19.0533 24.9336 16.8447 24.9336H13.7455C12.675 24.9336 11.7633 24.2539 11.4181 23.3026C10.9919 23.1755 10.574 23.0105 10.1663 22.8078C9.30271 22.3788 8.51859 21.7975 7.82834 21.0774C3.351 22.061 0 26.0505 0 30.8234V31.4472C0 32.3048 0.695235 33 1.55281 33H25.6449C26.5025 33 27.1977 32.3048 27.1977 31.4472V30.8234C27.1977 27.1363 25.1978 23.9166 22.2239 22.1889Z" fill="white"/>
        <path d="M6.17829 15.4349C6.84567 15.4349 7.42656 15.065 7.72751 14.5192C7.73542 14.5408 7.74347 14.5622 7.75158 14.5837C7.75397 14.5902 7.75636 14.5966 7.75876 14.6031C8.46476 16.4614 9.83848 18.0193 11.6499 18.6999C12.088 18.0038 12.8627 17.5409 13.746 17.5409H16.8451C17.1542 17.5409 17.4419 17.4537 17.6941 17.3127C18.1177 17.0758 18.4987 16.4749 18.6954 16.1564C19.0102 15.6467 19.2541 15.1068 19.4703 14.5182C19.5918 14.7389 19.759 14.9309 19.9592 15.0814V15.8413C19.9592 17.5584 18.5622 18.9555 16.845 18.9555H13.7459C13.16 18.9555 12.685 19.4305 12.685 20.0164C12.685 20.6023 13.16 21.0772 13.7459 21.0772H16.845C19.7321 21.0772 22.0809 18.7284 22.0809 15.8413V15.0814C22.5104 14.7587 22.7882 14.2453 22.7882 13.6668V10.4679V9.24128C22.7882 8.65095 22.4987 8.12862 22.0541 7.80747C21.7094 3.44466 18.0491 0 13.5992 0C9.14923 0 5.48897 3.44466 5.14421 7.8074C4.69967 8.12856 4.41016 8.65095 4.41016 9.24121V13.6667C4.41016 14.646 5.20571 15.4349 6.17829 15.4349ZM13.5992 2.1218C16.8933 2.1218 19.6104 4.63922 19.928 7.85127C19.7195 8.01528 19.5487 8.22488 19.431 8.4654C18.43 5.85372 16.1954 4.03539 13.5991 4.03539C10.9469 4.03539 8.74809 5.91621 7.77112 8.45497C7.76979 8.45842 7.76853 8.46195 7.7672 8.46547C7.64953 8.22495 7.47875 8.01534 7.27027 7.85134C7.58804 4.63922 10.305 2.1218 13.5992 2.1218Z" fill="white"/>
    </symbol>
    <symbol id="logoipsum" viewBox="0 0 155 31" fill="none" xmlns="http://www.w3.org/2000/svg">
        <path d="M21.8994 25.5718L1.22469 11.3104C-0.870442 9.8652 -0.158233 6.85618 2.45435 6.14858L24.4279 0.184715C24.8934 0.0167579 25.3922 -0.0377631 25.8829 0.0256783C26.3737 0.0891197 26.8422 0.268693 27.2497 0.549495C27.6572 0.830297 27.9918 1.20423 28.2258 1.64025C28.4597 2.07628 28.5864 2.56183 28.5951 3.05659L27.2929 23.2807C27.1384 25.6813 23.9946 27.0169 21.8994 25.5718Z" fill="#E9327C"/>
        <path d="M15.3423 29.0923L3.16216 5.27252C2.88374 4.72759 2.76122 4.11636 2.80811 3.50622C2.85501 2.89609 3.06949 2.31075 3.42792 1.81477C3.78635 1.31879 4.27478 0.931438 4.83937 0.695421C5.40396 0.459403 6.02277 0.383896 6.62754 0.477224L29.2004 3.96105C29.7201 4.04126 30.2133 4.24369 30.6395 4.55168C31.0657 4.85967 31.4128 5.26443 31.6521 5.73268C31.8914 6.20093 32.0161 6.71929 32.016 7.24514C32.0159 7.77099 31.891 8.28932 31.6516 8.75749L21.2531 29.0934C20.9739 29.6368 20.5503 30.0926 20.0288 30.4109C19.5074 30.7291 18.9083 30.8975 18.2974 30.8973C17.6865 30.8972 17.0874 30.7287 16.5661 30.4102C16.0447 30.0918 15.6213 29.6357 15.3423 29.0923Z" fill="#1DACE3"/>
        <path d="M28.54 3.85843L17.2876 2.1217L3.47217 5.87289L8.98659 16.6609L21.8997 25.5715C22.1846 25.7659 22.4979 25.9148 22.8285 26.0129L27.7333 16.4212L28.54 3.85843Z" fill="#001A49"/>
        <path d="M85.5361 6.64292C85.5361 6.22467 85.6602 5.81581 85.8925 5.46805C86.1249 5.12028 86.4552 4.84923 86.8416 4.68917C87.228 4.52911 87.6532 4.48724 88.0634 4.56883C88.4736 4.65043 88.8504 4.85184 89.1462 5.14759C89.4419 5.44334 89.6434 5.82015 89.725 6.23036C89.8065 6.64058 89.7647 7.06578 89.6046 7.45219C89.4446 7.83861 89.1735 8.16888 88.8257 8.40125C88.478 8.63362 88.0691 8.75765 87.6509 8.75765C87.0918 8.75195 86.5572 8.52732 86.1618 8.13196C85.7665 7.7366 85.5418 7.20202 85.5361 6.64292ZM85.8888 9.79139H89.4141V21.5393H85.8888V9.79139Z" fill="#001A49"/>
        <path d="M104.638 15.6654C104.678 16.4419 104.566 17.2189 104.305 17.9516C104.045 18.6843 103.642 19.3583 103.12 19.9348C102.598 20.5114 101.968 20.979 101.265 21.311C100.561 21.6429 99.7996 21.8326 99.0228 21.869C98.3695 21.9046 97.7164 21.7944 97.1108 21.5464C96.5053 21.2985 95.9625 20.919 95.5217 20.4354V26.2391H91.9976V9.79145H95.5217V10.8955C95.9626 10.4121 96.5055 10.0328 97.111 9.78505C97.7165 9.5373 98.3696 9.42729 99.0228 9.463C99.7995 9.49929 100.561 9.6888 101.265 10.0206C101.968 10.3524 102.598 10.82 103.12 11.3964C103.642 11.9729 104.045 12.6468 104.305 13.3794C104.565 14.1121 104.678 14.889 104.638 15.6654ZM101.113 15.6654C101.1 15.1154 100.924 14.5817 100.608 14.131C100.292 13.6804 99.8509 13.3328 99.3387 13.1319C98.8264 12.931 98.2664 12.8856 97.7285 13.0014C97.1906 13.1173 96.6988 13.3891 96.3147 13.7831C95.9306 14.177 95.6712 14.6755 95.569 15.2161C95.4668 15.7567 95.5263 16.3155 95.7401 16.8225C95.9538 17.3295 96.3124 17.7621 96.7709 18.0663C97.2293 18.3705 97.7673 18.5327 98.3175 18.5327C98.6954 18.5497 99.0725 18.4866 99.4242 18.3476C99.7759 18.2085 100.094 17.9967 100.358 17.7259C100.622 17.4551 100.826 17.1315 100.956 16.7764C101.086 16.4213 101.14 16.0427 101.113 15.6654Z" fill="#001A49"/>
        <path d="M115.515 18.0129C115.515 20.7154 113.165 21.8667 110.628 21.8667C109.603 21.9595 108.573 21.7425 107.673 21.2439C106.772 20.7452 106.042 19.9879 105.577 19.0697L108.631 17.3319C108.755 17.7562 109.021 18.1251 109.384 18.3769C109.748 18.6286 110.187 18.7479 110.628 18.7148C111.474 18.7148 111.895 18.4555 111.895 17.9864C111.895 16.6934 106.116 17.3756 106.116 13.3098C106.116 10.7491 108.277 9.45724 110.726 9.45724C111.644 9.42841 112.554 9.64637 113.359 10.0884C114.165 10.5305 114.838 11.1805 115.307 11.9707L112.3 13.5922C112.168 13.2838 111.949 13.021 111.669 12.8365C111.389 12.6521 111.061 12.5542 110.726 12.555C110.115 12.555 109.739 12.7855 109.739 13.213C109.736 14.5614 115.515 13.6683 115.515 18.0129Z" fill="#001A49"/>
        <path d="M128.396 9.79126V21.5392H124.872V20.4329C124.465 20.9202 123.948 21.3042 123.364 21.5534C122.78 21.8026 122.145 21.9099 121.512 21.8665C119.139 21.8665 117.119 20.1747 117.119 17.0021V9.79126H120.643V16.4881C120.613 16.7681 120.645 17.0512 120.736 17.3177C120.827 17.5842 120.975 17.8276 121.169 18.0311C121.364 18.2346 121.6 18.3933 121.863 18.496C122.125 18.5987 122.406 18.643 122.687 18.6259C123.979 18.6259 124.877 17.8745 124.877 16.2057V9.79126H128.396Z" fill="#001A49"/>
        <path d="M148.596 14.325V21.5393H145.072V14.6315C145.072 13.4572 144.507 12.7047 143.38 12.7047C142.205 12.7047 141.548 13.5275 141.548 14.9139V21.5393H138.022V14.6315C138.022 13.4572 137.459 12.7047 136.331 12.7047C135.156 12.7047 134.498 13.5275 134.498 14.9139V21.5393H130.974V9.79131H134.504V10.8677C134.869 10.3884 135.349 10.0083 135.899 9.76207C136.449 9.51586 137.052 9.4114 137.653 9.45825C138.256 9.42876 138.856 9.55603 139.396 9.82767C139.935 10.0993 140.395 10.5061 140.731 11.0083C141.121 10.4828 141.639 10.065 142.235 9.79392C142.831 9.52283 143.486 9.40735 144.138 9.45825C146.835 9.46286 148.596 11.3886 148.596 14.325Z" fill="#001A49"/>
        <path d="M151.582 9.71852C153.027 9.71852 154.198 8.54728 154.198 7.10249C154.198 5.65769 153.027 4.48645 151.582 4.48645C150.138 4.48645 148.966 5.65769 148.966 7.10249C148.966 8.54728 150.138 9.71852 151.582 9.71852Z" fill="#001A49"/>
        <path d="M37.4194 4.38745H40.9447V21.5392H37.4194V4.38745ZM42.9408 15.6652C42.9369 14.4336 43.2986 13.2285 43.98 12.2025C44.6615 11.1765 45.632 10.3758 46.7688 9.90181C47.9056 9.42779 49.1575 9.30175 50.366 9.53965C51.5744 9.77756 52.6851 10.3687 53.5574 11.2383C54.4297 12.1078 55.0243 13.2166 55.2661 14.4243C55.5078 15.632 55.3857 16.8843 54.9152 18.0226C54.4448 19.1609 53.6472 20.1339 52.6234 20.8186C51.5996 21.5033 50.3956 21.8688 49.1639 21.8688C48.3459 21.8776 47.5344 21.7232 46.7767 21.4148C46.019 21.1064 45.3303 20.6501 44.7509 20.0725C44.1716 19.495 43.7131 18.8078 43.4023 18.0511C43.0915 17.2943 42.9346 16.4833 42.9408 15.6652ZM51.8699 15.6652C51.856 15.1339 51.6859 14.6185 51.3806 14.1834C51.0754 13.7484 50.6487 13.4129 50.1538 13.2191C49.6589 13.0253 49.1179 12.9817 48.5984 13.0938C48.0789 13.2059 47.6039 13.4687 47.233 13.8493C46.8621 14.2299 46.6116 14.7114 46.5129 15.2336C46.4142 15.7558 46.4716 16.2956 46.6781 16.7853C46.8845 17.275 47.2308 17.693 47.6735 17.987C48.1163 18.2809 48.6359 18.4378 49.1674 18.438C49.5313 18.4484 49.8935 18.3832 50.231 18.2467C50.5685 18.1101 50.874 17.9051 51.1283 17.6446C51.3827 17.3841 51.5803 17.0737 51.7087 16.7331C51.8371 16.3924 51.8936 16.0288 51.8745 15.6652H51.8699ZM69.4434 9.78778V20.9492C69.4434 24.8963 66.3652 26.5638 63.241 26.5638C62.1412 26.6468 61.0399 26.4255 60.0576 25.924C59.0753 25.4225 58.2501 24.6602 57.6724 23.7208L60.6791 21.9817C60.9218 22.472 61.3084 22.8766 61.7872 23.1412C62.266 23.4059 62.8142 23.518 63.3585 23.4626C63.7059 23.5101 64.0595 23.4789 64.3932 23.3714C64.727 23.2639 65.0323 23.0829 65.2867 22.8416C65.5411 22.6004 65.7381 22.3051 65.8631 21.9776C65.9882 21.65 66.0381 21.2986 66.0091 20.9492V19.8682C65.5963 20.373 65.0709 20.7741 64.4751 21.0393C63.8794 21.3044 63.2297 21.4263 62.5783 21.3951C61.0276 21.347 59.5566 20.6971 58.4767 19.5831C57.3969 18.4692 56.793 16.9787 56.793 15.4272C56.793 13.8758 57.3969 12.3853 58.4767 11.2713C59.5566 10.1574 61.0276 9.50753 62.5783 9.45934C63.2297 9.42816 63.8794 9.55005 64.4751 9.81523C65.0709 10.0804 65.5963 10.4815 66.0091 10.9863V9.78778H69.4434ZM66.0137 15.4267C66.037 14.8592 65.8899 14.2978 65.5915 13.8147C65.2932 13.3315 64.8571 12.9486 64.3393 12.7152C63.8216 12.4818 63.2459 12.4087 62.6863 12.5051C62.1266 12.6015 61.6086 12.8631 61.1988 13.2563C60.7891 13.6495 60.5063 14.1562 60.3868 14.7114C60.2673 15.2666 60.3166 15.8449 60.5284 16.3718C60.7402 16.8987 61.1047 17.3503 61.5752 17.6683C62.0456 17.9864 62.6005 18.1565 63.1684 18.1568C63.5387 18.1828 63.9103 18.1311 64.2594 18.0049C64.6084 17.8786 64.9272 17.6808 65.1952 17.4239C65.4632 17.1671 65.6745 16.857 65.8155 16.5136C65.9564 16.1703 66.024 15.8012 66.0137 15.4301V15.4267ZM71.4394 15.6572C71.4355 14.4255 71.7972 13.2204 72.4787 12.1944C73.1601 11.1685 74.1307 10.3678 75.2675 9.89374C76.4043 9.41972 77.6562 9.29368 78.8646 9.53159C80.0731 9.76949 81.1838 10.3606 82.0561 11.2302C82.9283 12.0997 83.523 13.2085 83.7647 14.4163C84.0064 15.624 83.8843 16.8762 83.4139 18.0145C82.9435 19.1528 82.1458 20.1259 81.122 20.8106C80.0982 21.4952 78.8943 21.8607 77.6626 21.8607C76.8453 21.8695 76.0344 21.7154 75.2772 21.4075C74.52 21.0996 73.8318 20.644 73.2525 20.0673C72.6732 19.4906 72.2146 18.8044 71.9033 18.0486C71.592 17.2928 71.4343 16.4826 71.4394 15.6652V15.6572ZM80.3685 15.6572C80.3549 15.1255 80.1848 14.6097 79.8796 14.1743C79.5743 13.7388 79.1474 13.4031 78.6522 13.2091C78.1571 13.015 77.6158 12.9713 77.0959 13.0834C76.5761 13.1955 76.1008 13.4584 75.7297 13.8392C75.3585 14.2201 75.1078 14.7019 75.0091 15.2245C74.9104 15.747 74.968 16.2871 75.1747 16.7771C75.3814 17.2671 75.728 17.6852 76.1711 17.9792C76.6143 18.2732 77.1343 18.43 77.666 18.4299C78.0289 18.4396 78.3898 18.3742 78.7262 18.2378C79.0626 18.1015 79.3671 17.8971 79.6209 17.6376C79.8746 17.378 80.0719 17.0688 80.2006 16.7294C80.3293 16.3901 80.3864 16.0277 80.3685 15.6652V15.6572Z" fill="#001A49"/>
    </symbol>
    <symbol id="facebook" viewBox="0 0 12 20" fill="none" xmlns="http://www.w3.org/2000/svg">
        <path d="M7.5487 20V10.8777H10.6094L11.0686 7.32156H7.5487V5.05147C7.5487 4.0222 7.83334 3.32076 9.31099 3.32076L11.1925 3.31999V0.13923C10.8671 0.0969453 9.75021 0 8.45021 0C5.73561 0 3.87715 1.65697 3.87715 4.69927V7.32156H0.807129V10.8777H3.87715V20H7.5487Z" fill="white"/>
    </symbol>
    <symbol id="X" viewBox="0 0 20 18" fill="none" xmlns="http://www.w3.org/2000/svg">
        <path d="M20 2.79875C19.2563 3.125 18.4637 3.34125 17.6375 3.44625C18.4875 2.93875 19.1363 2.14125 19.4412 1.18C18.6488 1.6525 17.7738 1.98625 16.8412 2.1725C16.0887 1.37125 15.0162 0.875 13.8462 0.875C11.5763 0.875 9.74875 2.7175 9.74875 4.97625C9.74875 5.30125 9.77625 5.61375 9.84375 5.91125C6.435 5.745 3.41875 4.11125 1.3925 1.6225C1.03875 2.23625 0.83125 2.93875 0.83125 3.695C0.83125 5.115 1.5625 6.37375 2.6525 7.1025C1.99375 7.09 1.3475 6.89875 0.8 6.5975C0.8 6.61 0.8 6.62625 0.8 6.6425C0.8 8.635 2.22125 10.29 4.085 10.6712C3.75125 10.7625 3.3875 10.8062 3.01 10.8062C2.7475 10.8062 2.4825 10.7913 2.23375 10.7362C2.765 12.36 4.2725 13.5538 6.065 13.5925C4.67 14.6838 2.89875 15.3412 0.98125 15.3412C0.645 15.3412 0.3225 15.3263 0 15.285C1.81625 16.4563 3.96875 17.125 6.29 17.125C13.835 17.125 17.96 10.875 17.96 5.4575C17.96 5.27625 17.9538 5.10125 17.945 4.9275C18.7588 4.35 19.4425 3.62875 20 2.79875Z" fill="white"/>
    </symbol>
    <symbol id="Wup" viewBox="0 0 20 20" fill="none" xmlns="http://www.w3.org/2000/svg">
        <path d="M10.0025 0H9.9975C4.48375 0 0 4.485 0 10C0 12.1875 0.705 14.215 1.90375 15.8612L0.6575 19.5763L4.50125 18.3475C6.0825 19.395 7.96875 20 10.0025 20C15.5162 20 20 15.5138 20 10C20 4.48625 15.5162 0 10.0025 0ZM15.8212 14.1213C15.58 14.8025 14.6225 15.3675 13.8587 15.5325C13.3363 15.6437 12.6537 15.7325 10.3562 14.78C7.4175 13.5625 5.525 10.5763 5.3775 10.3825C5.23625 10.1887 4.19 8.80125 4.19 7.36625C4.19 5.93125 4.91875 5.2325 5.2125 4.9325C5.45375 4.68625 5.8525 4.57375 6.235 4.57375C6.35875 4.57375 6.47 4.58 6.57 4.585C6.86375 4.5975 7.01125 4.615 7.205 5.07875C7.44625 5.66 8.03375 7.095 8.10375 7.2425C8.175 7.39 8.24625 7.59 8.14625 7.78375C8.0525 7.98375 7.97 8.0725 7.8225 8.2425C7.675 8.4125 7.535 8.5425 7.3875 8.725C7.2525 8.88375 7.1 9.05375 7.27 9.3475C7.44 9.635 8.0275 10.5937 8.8925 11.3637C10.0087 12.3575 10.9137 12.675 11.2375 12.81C11.4787 12.91 11.7662 12.8863 11.9425 12.6988C12.1663 12.4575 12.4425 12.0575 12.7238 11.6638C12.9237 11.3813 13.1763 11.3462 13.4412 11.4462C13.7113 11.54 15.14 12.2462 15.4338 12.3925C15.7275 12.54 15.9212 12.61 15.9925 12.7338C16.0625 12.8575 16.0625 13.4388 15.8212 14.1213Z" fill="white"/>
    </symbol>
    <symbol id="instagram" viewBox="0 0 20 20" fill="none" xmlns="http://www.w3.org/2000/svg">
        <g clip-path="url(#clip0_27_71)">
        <path d="M14.5862 0H5.41381C2.42858 0 0 2.42858 0 5.41381V14.5863C0 17.5714 2.42858 20 5.41381 20H14.5863C17.5714 20 20 17.5714 20 14.5863V5.41381C20 2.42858 17.5714 0 14.5862 0V0ZM9.99998 15.4686C6.98454 15.4686 4.53139 13.0154 4.53139 9.99998C4.53139 6.98454 6.98454 4.53139 9.99998 4.53139C13.0154 4.53139 15.4686 6.98454 15.4686 9.99998C15.4686 13.0154 13.0154 15.4686 9.99998 15.4686ZM15.5993 5.82106C14.7082 5.82106 13.9834 5.09627 13.9834 4.20516C13.9834 3.31405 14.7082 2.58911 15.5993 2.58911C16.4904 2.58911 17.2154 3.31405 17.2154 4.20516C17.2154 5.09627 16.4904 5.82106 15.5993 5.82106Z" fill="white"/>
        <path d="M9.99972 5.70392C7.63095 5.70392 5.70361 7.6311 5.70361 10C5.70361 12.3688 7.63095 14.2961 9.99972 14.2961C12.3686 14.2961 14.2958 12.3688 14.2958 10C14.2958 7.6311 12.3686 5.70392 9.99972 5.70392Z" fill="white"/>
        <path d="M15.5992 3.76172C15.3547 3.76172 15.1558 3.96069 15.1558 4.20514C15.1558 4.44958 15.3547 4.64856 15.5992 4.64856C15.8438 4.64856 16.0428 4.44974 16.0428 4.20514C16.0428 3.96054 15.8438 3.76172 15.5992 3.76172Z" fill="white"/>
        </g>
        <defs>
        <clipPath id="clip0_27_71">
        <rect width="20" height="20" fill="white"/>
        </clipPath>
        </defs>
    </symbol>

</svg>