<svg width="16" height="16" viewBox="0 0 16 16" fill="none" xmlns="http://www.w3.org/2000/svg">
<path fill-rule="evenodd" clip-rule="evenodd" d="M4.57104 0.770003C5.5205 0.319766 6.54934 0.0609472 7.59882 0.00832395C8.64831 -0.0442993 9.69788 0.110304 10.6876 0.463306C11.6773 0.816307 12.5879 1.3608 13.3672 2.06568C14.1465 2.77057 14.7793 3.62205 15.2295 4.5715C15.6798 5.52096 15.9386 6.5498 15.9912 7.59928C16.0438 8.64877 15.8892 9.69834 15.5362 10.6881C15.1832 11.6778 14.6388 12.5883 13.9339 13.3676C13.229 14.1469 12.3775 14.7798 11.428 15.23C9.51053 16.1392 7.31039 16.2494 5.31162 15.5363C3.31286 14.8233 1.67921 13.3455 0.770044 11.428C-0.139118 9.51049 -0.249313 7.31035 0.4637 5.31158C1.17671 3.31282 2.65353 1.67917 4.57104 0.770003ZM14.857 8C14.8575 9.08885 14.5986 10.1622 14.1019 11.1311C13.6051 12.1 12.8848 12.9367 12.0004 13.572C11.1161 14.2072 10.0932 14.6227 9.01635 14.7841C7.93953 14.9455 6.83976 14.8481 5.80804 14.5C6.8407 13.7598 7.68194 12.7839 8.26195 11.6535C8.84196 10.523 9.14401 9.27057 9.14304 8C9.14401 6.72944 8.84196 5.47697 8.26195 4.34652C7.68194 3.21607 6.8407 2.24024 5.80804 1.5C6.83976 1.15193 7.93953 1.05455 9.01635 1.21594C10.0932 1.37732 11.1161 1.79282 12.0004 2.42805C12.8848 3.06329 13.6051 3.89999 14.1019 4.86892C14.5986 5.83786 14.8575 6.91116 14.857 8Z" fill="#767A85"/>
</svg>
