<svg width="16" height="16" viewBox="0 0 16 16" fill="none" xmlns="http://www.w3.org/2000/svg">
<path fill-rule="evenodd" clip-rule="evenodd" d="M4.83898 3.768C4.34891 3.06808 3.85423 2.3714 3.35498 1.678C3.31298 1.62 3.23798 1.505 3.15298 1.5C3.11498 1.498 2.92498 1.51 2.59698 1.758C1.63298 2.488 1.24498 3.602 1.66698 5.242C2.06098 6.772 3.31098 9.015 5.14798 10.852C6.98498 12.689 9.22798 13.939 10.758 14.332C12.398 14.755 13.512 14.367 14.242 13.403C14.49 13.075 14.502 12.885 14.5 12.847C14.495 12.762 14.38 12.687 14.322 12.645C13.866 12.313 13.023 11.717 12.232 11.161C11.942 10.957 11.778 10.844 11.652 10.766C11.48 10.66 11.36 10.748 11.223 10.881C11.01 11.088 10.811 11.315 10.57 11.491C10.2672 11.7131 9.90602 11.8418 9.53098 11.861C8.97498 11.889 8.47898 11.659 8.06298 11.308C6.82694 10.2977 5.69528 9.16604 4.68498 7.93C4.33298 7.512 4.10698 7.01 4.13998 6.452C4.16698 5.997 4.34798 5.652 4.51398 5.425C4.68798 5.186 4.91398 4.989 5.11898 4.778C5.24898 4.644 5.34898 4.536 5.23398 4.348C5.10752 4.1515 4.97581 3.95743 4.83898 3.768ZM4.56898 0.794997C4.90898 1.263 5.51098 2.116 6.06598 2.905C6.45298 3.457 6.64598 3.732 6.72798 4.023C6.84298 4.433 6.81998 4.839 6.62098 5.256C6.49098 5.528 6.35098 5.668 5.87298 6.146C5.75898 6.259 5.64698 6.37 5.63698 6.539C5.62698 6.713 5.72898 6.837 5.83298 6.963C6.78429 8.1279 7.84957 9.19487 9.01298 10.148C9.13898 10.251 9.28498 10.372 9.45598 10.363C9.62798 10.355 9.73998 10.241 9.85498 10.126C10.333 9.648 10.472 9.509 10.744 9.379C11.1291 9.19769 11.5664 9.15975 11.977 9.272C12.267 9.353 12.543 9.547 13.094 9.934C13.884 10.489 14.737 11.091 15.204 11.432C16.231 12.178 16.215 13.282 15.438 14.308C14.258 15.866 12.462 16.32 10.384 15.785C8.54798 15.314 6.07798 13.903 4.08698 11.913C2.09698 9.923 0.686984 7.452 0.213984 5.616C-0.320016 3.538 0.133984 1.741 1.69198 0.561997C2.71798 -0.215003 3.82298 -0.231003 4.56898 0.794997Z" fill="#ADAFBA"/>
</svg>
