<svg width="18" height="15" viewBox="0 0 18 15" fill="none" xmlns="http://www.w3.org/2000/svg">
<path fill-rule="evenodd" clip-rule="evenodd" d="M1.68812 6.415C5.47012 4.829 10.0441 2.573 14.0081 1.048C17.6681 -0.296998 17.6071 0.0700016 17.0581 3.731C16.6301 6.659 16.1411 9.586 15.6551 12.514C15.4721 13.916 14.7381 14.648 13.2151 13.798L8.45812 10.443C7.78612 9.893 7.96912 9.465 8.51912 8.919L12.9101 4.77C14.0721 3.609 13.5211 3.184 12.1771 4.098L6.13912 8.184C5.28312 8.795 4.37012 8.795 3.39412 8.49L1.32112 7.756C-0.0238811 7.267 1.01512 6.716 1.68812 6.414V6.415Z" fill="#ADAFBA"/>
</svg>
