<svg width="51" height="32" viewBox="0 0 51 32" fill="none" xmlns="http://www.w3.org/2000/svg">
<path d="M32.0747 28.2316H18.4648V3.77232H32.0747V28.2316Z" fill="#C3C0C0"/>
<path d="M19.3367 16C19.3367 11.0383 21.6598 6.61861 25.2775 3.77036C22.632 1.68759 19.2932 0.444447 15.6647 0.444447C7.07447 0.444447 0.111115 7.40879 0.111115 16C0.111115 24.5912 7.07447 31.5556 15.6647 31.5556C19.2932 31.5556 22.632 30.3124 25.2775 28.2296C21.6598 25.3814 19.3367 20.9617 19.3367 16Z" fill="#414349"/>
<path d="M50.4301 16C50.4301 24.5912 43.4667 31.5556 34.8765 31.5556C31.248 31.5556 27.9092 30.3124 25.2627 28.2296C28.8813 25.3814 31.2044 20.9617 31.2044 16C31.2044 11.0383 28.8813 6.61861 25.2627 3.77036C27.9092 1.68759 31.248 0.444447 34.8765 0.444447C43.4667 0.444447 50.4301 7.40879 50.4301 16Z" fill="#6B6D75"/>
</svg>
