<svg width="44" height="22" viewBox="0 0 44 22" fill="none" xmlns="http://www.w3.org/2000/svg">
<path d="M13.4116 0.10421C10.2777 0.117616 7.37366 0.753631 5.95773 1.19682C5.95773 1.19682 18.8018 3.37645 19.8703 12.2431C10.1101 -1.82908 -0.535919 15.1898 -0.535919 15.1898C1.68371 14.6075 8.03961 12.8792 12.2838 13.6083C15.1876 14.1072 18.0183 16.7398 17.8961 16.7066C10.9759 18.4092 -0.0179909 49.2078 1.84883 51.709C3.51344 53.6216 5.17984 52.9692 6.84467 51.9989C7.66871 45.4717 14.0995 16.8338 21.9686 19.1456C21.9697 19.1459 21.9708 19.1452 21.9719 19.1456C22.6344 19.3723 23.2612 19.7701 23.2951 20.3778C23.3599 21.5356 22.6125 23.4277 22.7891 24.7419C23.1982 27.7914 23.7953 28.852 24.6637 29.9159C26.7376 28.7501 28.722 24.547 29.1324 22.3677C30.9908 23.1815 33.978 25.0663 36.4151 32.0664C37.6891 25.5067 35.8518 20.3326 29.8203 18.0351C32.4323 16.9062 43.801 22.6189 45.1887 25.8029C46.5388 20.0615 36.989 13.036 29.0383 13.4094C30.5626 13.0116 32.2377 13.4764 33.8317 12.3026C35.9706 10.7275 38.4651 9.37106 40.7895 7.91402C32.9723 4.51386 25.7583 6.19277 25.2503 9.71213C24.8512 1.90121 18.7896 0.0815306 13.4115 0.104321L13.4116 0.10421Z" fill="white"/>
</svg>
