<svg width="56" height="16" viewBox="0 0 56 16" fill="none" xmlns="http://www.w3.org/2000/svg">
<g clip-path="url(#clip0_15_468)">
<path d="M15.0906 0.00349457V0.0104811C15.0837 0.0104811 12.9025 0.00349426 12.3208 2.10625C11.7877 4.03435 10.2851 9.35526 10.2435 9.50197H9.82804C9.82804 9.50197 8.29082 4.06229 7.75072 2.09926C7.16907 -0.00349223 4.98096 0.00349457 4.98096 0.00349457H0V15.9965H4.98327V6.49797H5.39873L8.30698 15.9964H11.7669L14.6751 6.50495H15.0906V15.9964H20.0739V0.00349457H15.0906ZM33.2949 0.00349457C33.2949 0.00349457 31.8338 0.136225 31.1483 1.68018L27.6192 9.50197H27.2037V0.00349457H22.2204V15.9965H26.9267C26.9267 15.9965 28.457 15.8568 29.1426 14.3199L32.6025 6.49804H33.018V15.9965H38.0012V0.00349457H33.2949ZM40.217 7.26648V15.9965H45.2002V10.8991H50.599C52.9533 10.8991 54.9453 9.38321 55.6862 7.26881H40.217V7.26648Z" fill="#666870"/>
<path d="M50.6013 0.00349426H39.5176C40.0716 3.04934 42.3358 5.49207 45.2625 6.28846C45.9419 6.47412 46.6428 6.56811 47.3467 6.56797H55.8891C55.9653 6.2047 55.9999 5.83445 55.9999 5.45023C56 2.44157 53.5834 0.00349426 50.6013 0.00349426Z" fill="#C3C0C0"/>
</g>
<defs>
<clipPath id="clip0_15_468">
<rect width="56" height="16" fill="white"/>
</clipPath>
</defs>
</svg>
