<svg width="16" height="13" viewBox="0 0 16 13" fill="none" xmlns="http://www.w3.org/2000/svg">
<path d="M1.67494 5.45297C5.61199 3.66542 8.2373 2.48696 9.55088 1.91759C13.3014 0.291912 14.0808 0.00951475 14.5887 9.04029e-05C14.7004 -0.00186109 14.9502 0.0269923 15.112 0.163819C15.2487 0.279352 15.2863 0.435421 15.3043 0.544959C15.3222 0.654498 15.3446 0.904028 15.3268 1.099C15.1236 3.32443 14.2442 8.72496 13.7968 11.2175C13.6074 12.2722 13.2347 12.6258 12.8738 12.6604C12.0895 12.7356 11.494 12.1203 10.7344 11.6014C9.54574 10.7894 8.87424 10.2839 7.72046 9.49158C6.38708 8.57589 7.25146 8.07261 8.01135 7.25012C8.21022 7.03486 11.6657 3.75943 11.7326 3.4623C11.741 3.42514 11.7488 3.28662 11.6698 3.21347C11.5908 3.14033 11.4743 3.16534 11.3902 3.18523C11.2709 3.21343 9.37209 4.52136 5.69359 7.10903C5.1546 7.49472 4.66641 7.68265 4.229 7.6728C3.74679 7.66194 2.81922 7.38867 2.12967 7.15508C1.2839 6.86858 0.611707 6.71711 0.67024 6.23053C0.700728 5.9771 1.03563 5.71791 1.67494 5.45297Z" fill="#F4F4F5"/>
</svg>
