<svg width="96" height="14" viewBox="0 0 96 14" fill="none" xmlns="http://www.w3.org/2000/svg">
<path d="M96.0003 0.69696V13.6H93.1861V0.69696L96.0003 0.69696Z" fill="white"/>
<path d="M86.7777 0.69696V10.3462C86.7777 10.6578 86.8641 10.8947 87.0369 11.0568C87.2097 11.2188 87.4565 11.2999 87.7775 11.2999L92.2394 11.2999L92.369 13.4504C91.4927 13.5501 90.5731 13.6062 89.6104 13.6187C88.66 13.6436 87.7096 13.6561 86.7592 13.6561C85.8335 13.6561 85.1299 13.4067 84.6486 12.9081C84.1795 12.3969 83.945 11.7487 83.945 10.9633V0.69696L86.7777 0.69696Z" fill="white"/>
<path d="M78.7366 0.69696C78.9711 0.69696 79.1747 0.765527 79.3475 0.902661C79.5327 1.03979 79.6561 1.22056 79.7178 1.44496L83.4207 13.6H80.5324L77.9219 4.11906C77.8726 3.90713 77.8232 3.69519 77.7738 3.48326C77.7245 3.25886 77.6812 3.04693 77.6442 2.84746H77.1443C77.1073 3.04693 77.0641 3.25886 77.0147 3.48326C76.9777 3.69519 76.9283 3.90713 76.8666 4.11906L74.2561 13.6H71.3494L75.0707 1.44496C75.1324 1.22056 75.2497 1.03979 75.4225 0.902661C75.6076 0.765527 75.8175 0.69696 76.052 0.69696L78.7366 0.69696ZM80.6991 8.04606V10.1966L74.071 10.1966V8.04606L80.6991 8.04606Z" fill="white"/>
<path d="M66.3755 0.547363C67.4864 0.547363 68.3689 0.647096 69.0231 0.846563C69.6896 1.03356 70.1709 1.37016 70.4672 1.85636C70.7634 2.34256 70.9115 3.02823 70.9115 3.91336C70.9115 4.8359 70.7326 5.54026 70.3746 6.02646C70.029 6.5002 69.4551 6.77446 68.6528 6.84926V6.96146C69.6402 7.04873 70.3314 7.38533 70.7264 7.97126C71.1213 8.54473 71.3188 9.34883 71.3188 10.3836C71.3188 11.2687 71.1645 11.9544 70.856 12.4406C70.5597 12.9268 70.0907 13.2696 69.4489 13.4691C68.8194 13.6561 67.9924 13.7496 66.968 13.7496C66.141 13.7496 65.4189 13.7433 64.8018 13.7309C64.197 13.7309 63.6354 13.7184 63.117 13.6935C62.5986 13.6685 62.0679 13.6374 61.5248 13.6L61.8025 11.6178C62.0987 11.6302 62.6665 11.6427 63.5058 11.6552C64.3575 11.6676 65.3449 11.6739 66.4681 11.6739C66.9865 11.6739 67.3938 11.624 67.69 11.5243C67.9863 11.4245 68.1899 11.2438 68.301 10.982C68.4244 10.7077 68.4861 10.3212 68.4861 9.82256C68.4861 9.2865 68.4244 8.88133 68.301 8.60706C68.1776 8.32033 67.9616 8.12086 67.653 8.00866C67.3568 7.89646 66.9433 7.83413 66.4125 7.82166L61.784 7.82166V6.00776L66.3755 6.00776C66.8322 5.9953 67.1901 5.94543 67.4493 5.85816C67.7209 5.7709 67.9122 5.6026 68.0233 5.35326C68.1344 5.10393 68.1899 4.75486 68.1899 4.30606C68.1899 3.8448 68.1282 3.49573 68.0048 3.25886C67.8937 3.00953 67.6962 2.84123 67.4123 2.75396C67.1284 2.6667 66.7335 2.62306 66.2274 2.62306C65.5362 2.62306 64.9252 2.62306 64.3945 2.62306C63.8637 2.62306 63.3886 2.6293 62.9689 2.64176C62.5492 2.64176 62.1604 2.65423 61.8025 2.67916L61.5248 0.696962C62.0185 0.647096 62.4937 0.61593 62.9504 0.603462C63.4194 0.578529 63.9255 0.566063 64.4685 0.566063C65.0116 0.553596 65.6473 0.547363 66.3755 0.547363ZM64.3019 0.696962V13.6H61.5248V0.696962L64.3019 0.696962Z" fill="white"/>
<path d="M56.2793 0.69696C56.5138 0.69696 56.7175 0.765527 56.8903 0.902661C57.0754 1.03979 57.1989 1.22056 57.2606 1.44496L60.9634 13.6H58.0752L55.4647 4.11906C55.4153 3.90713 55.3659 3.69519 55.3166 3.48326C55.2672 3.25886 55.224 3.04693 55.187 2.84746H54.6871C54.6501 3.04693 54.6069 3.25886 54.5575 3.48326C54.5205 3.69519 54.4711 3.90713 54.4094 4.11906L51.7989 13.6H48.8921L52.6135 1.44496C52.6752 1.22056 52.7925 1.03979 52.9653 0.902661C53.1504 0.765527 53.3602 0.69696 53.5947 0.69696L56.2793 0.69696ZM58.2418 8.04606V10.1966L51.6137 10.1966V8.04606L58.2418 8.04606Z" fill="white"/>
<path d="M48.3611 0.69696V12.5715C48.3611 13.2571 48.0217 13.6 47.3428 13.6H45.7876C45.4791 13.6 45.2446 13.5314 45.0841 13.3943C44.9236 13.2447 44.7755 13.0265 44.6398 12.7398L41.1035 5.97036C40.9554 5.68363 40.8073 5.36573 40.6592 5.01666C40.5234 4.66759 40.4062 4.33099 40.3074 4.00686H40.1038C40.1408 4.34346 40.1717 4.68629 40.1963 5.03536C40.221 5.37196 40.2334 5.70856 40.2334 6.04516V13.6H37.5488V1.72546C37.5488 1.03979 37.8944 0.69696 38.5856 0.69696L40.1223 0.69696C40.4185 0.69696 40.6407 0.771761 40.7888 0.921361C40.9493 1.05849 41.1035 1.27043 41.2517 1.55716L44.6768 8.12086C44.8249 8.40759 44.9792 8.72549 45.1397 9.07456C45.3001 9.42363 45.4544 9.78516 45.6025 10.1592H45.8247C45.7876 9.78516 45.7568 9.42363 45.7321 9.07456C45.7198 8.71303 45.7136 8.35773 45.7136 8.00866L45.6951 0.69696L48.3611 0.69696Z" fill="white"/>
<path d="M35.716 0.69696V13.6H32.9019V0.69696L35.716 0.69696Z" fill="white"/>
<path d="M26.4935 0.69696V10.3462C26.4935 10.6578 26.5799 10.8947 26.7527 11.0568C26.9255 11.2188 27.1723 11.2999 27.4932 11.2999L31.9552 11.2999L32.0848 13.4504C31.2084 13.5501 30.2889 13.6062 29.3261 13.6187C28.3757 13.6436 27.4253 13.6561 26.4749 13.6561C25.5492 13.6561 24.8457 13.4067 24.3643 12.9081C23.8953 12.3969 23.6608 11.7487 23.6608 10.9633V0.69696L26.4935 0.69696Z" fill="white"/>
<path d="M18.4524 0.69696C18.6869 0.69696 18.8905 0.765527 19.0633 0.902661C19.2485 1.03979 19.3719 1.22056 19.4336 1.44496L23.1365 13.6H20.2482L17.6377 4.11906C17.5884 3.90713 17.539 3.69519 17.4896 3.48326C17.4402 3.25886 17.397 3.04693 17.36 2.84746H16.8601C16.8231 3.04693 16.7799 3.25886 16.7305 3.48326C16.6935 3.69519 16.6441 3.90713 16.5824 4.11906L13.9719 13.6H11.0652L14.7865 1.44496C14.8482 1.22056 14.9655 1.03979 15.1383 0.902661C15.3234 0.765527 15.5333 0.69696 15.7678 0.69696L18.4524 0.69696ZM20.4149 8.04606V10.1966L13.7868 10.1966V8.04606L20.4149 8.04606Z" fill="white"/>
<path d="M12.3331 0.69696L8.8524 12.8146C8.79068 13.039 8.66725 13.226 8.48211 13.3756C8.30931 13.5252 8.09948 13.6 7.85263 13.6L5.26063 13.6C5.00143 13.6 4.77926 13.5252 4.59411 13.3756C4.42131 13.226 4.31023 13.039 4.26086 12.8146L0.761658 0.69696L3.68691 0.69696L6.01971 10.0096C6.06908 10.2464 6.11846 10.4895 6.16783 10.7389C6.22954 10.9757 6.27891 11.2126 6.31594 11.4495H6.79731C6.83434 11.2126 6.87754 10.9695 6.92691 10.7202C6.98863 10.4708 7.05034 10.2277 7.11206 9.99086L9.42634 0.69696L12.3331 0.69696Z" fill="white"/>
</svg>
