<svg width="55" height="17" viewBox="0 0 55 17" fill="none" xmlns="http://www.w3.org/2000/svg">
<path d="M24.0406 16.6415H19.6149L22.3831 0.775299H26.8086L24.0406 16.6415Z" fill="#666870"/>
<path d="M40.0841 1.16334C39.2112 0.842312 37.8266 0.487854 36.1146 0.487854C31.744 0.487854 28.6662 2.64825 28.6474 5.73696C28.6111 8.01581 30.8509 9.28154 32.5262 10.0414C34.2384 10.8178 34.8205 11.3246 34.8205 12.0167C34.8031 13.0796 33.4369 13.5696 32.1627 13.5696C30.3957 13.5696 29.4489 13.317 28.0101 12.7256L27.4274 12.4721L26.808 16.0337C27.8461 16.4721 29.7585 16.8611 31.744 16.8781C36.3878 16.8781 39.4111 14.7512 39.4469 11.4597C39.4646 9.6535 38.2818 8.26954 35.7319 7.13864C34.184 6.41268 33.236 5.92317 33.236 5.18038C33.2542 4.50511 34.0378 3.81347 35.7852 3.81347C37.224 3.7796 38.2811 4.10018 39.0819 4.42099L39.4822 4.58946L40.0841 1.16334Z" fill="#666870"/>
<path d="M45.9663 11.0207C46.3308 10.1092 47.7333 6.58145 47.7333 6.58145C47.7149 6.61532 48.097 5.65313 48.3156 5.06244L48.6249 6.42957C48.6249 6.42957 49.463 10.2274 49.645 11.0207C48.9533 11.0207 46.8405 11.0207 45.9663 11.0207ZM51.4293 0.775299H48.006C46.9503 0.775299 46.1483 1.06201 45.6928 2.09173L39.1189 16.6413H43.7627C43.7627 16.6413 44.5273 14.683 44.6916 14.2613C45.201 14.2613 49.7185 14.2613 50.3739 14.2613C50.501 14.8183 50.902 16.6413 50.902 16.6413H54.9998L51.4293 0.775299Z" fill="#666870"/>
<path d="M15.9184 0.775299L11.5841 11.5946L11.1105 9.40028C10.3091 6.86838 7.79604 4.11752 4.99155 2.74972L8.96159 16.6247H13.6417L20.5982 0.775299H15.9184Z" fill="#666870"/>
<path d="M7.55919 0.775299H0.438569L0.365723 1.09588C5.92025 2.41253 9.5989 5.58627 11.1103 9.40095L9.56236 2.109C9.30751 1.09566 8.52435 0.808726 7.55919 0.775299Z" fill="#C3C0C0"/>
</svg>
