<svg width="34" height="28" viewBox="0 0 34 28" fill="none" xmlns="http://www.w3.org/2000/svg">
<path d="M27.3213 26.3854C27.3213 26.7542 27.6203 27.0532 27.9891 27.0532H33.332C33.5091 27.0532 33.679 26.9828 33.8043 26.8576C33.9295 26.7324 33.9999 26.5625 33.9999 26.3853V25.8389H27.3213V26.3854Z" fill="white"/>
<path d="M33.332 14.9106H27.9891C27.6203 14.9106 27.3213 15.2097 27.3213 15.5785V16.125H33.9998V15.5785C33.9998 15.2097 33.7008 14.9106 33.332 14.9106Z" fill="white"/>
<path d="M13.9639 19.1607H20.6424H26.1067V17.3394H13.9639V19.1607Z" fill="white"/>
<path d="M27.9284 2.76775C27.9284 1.76182 27.113 0.946289 26.107 0.946289H7.89275C6.88682 0.946289 6.07129 1.76176 6.07129 2.76775V6.41059H11.2235C12.7364 6.41225 13.9625 7.63831 13.9641 9.15125V16.1249H26.107V15.5784C26.1104 14.565 26.9155 13.7363 27.9284 13.7036V2.76775Z" fill="white"/>
<path d="M20.0353 20.375H13.9639V22.8035H20.0353V20.375Z" fill="white"/>
<path d="M33.9998 17.3394H27.3213V24.625H33.9998V17.3394Z" fill="white"/>
<path d="M0 25.527C0.000664063 26.3697 0.683652 27.0527 1.52635 27.0533H11.2237C12.0663 27.0527 12.7493 26.3697 12.75 25.527V25.2319H0V25.527Z" fill="white"/>
<path d="M0 24.0178H12.75V23.4106V19.7678V10.6606H0V24.0178Z" fill="white"/>
<path d="M11.2237 7.625H1.52635C0.683652 7.62566 0.000664063 8.30865 0 9.15135V9.44639H12.75V9.15135C12.7493 8.30865 12.0663 7.62566 11.2237 7.625Z" fill="white"/>
<path d="M23.071 24.0176H13.9639V25.2319H23.6782V24.6247C23.6781 24.2894 23.4063 24.0176 23.071 24.0176Z" fill="white"/>
</svg>
