<svg width="31" height="29" viewBox="0 0 31 29" fill="none" xmlns="http://www.w3.org/2000/svg">
<path d="M0 0.876953H3.63281V9.95898H0V0.876953Z" fill="white"/>
<path d="M27.3672 19.041H31V28.123H27.3672V19.041Z" fill="white"/>
<path d="M13.6836 9.95898H17.3164V19.041H13.6836V9.95898Z" fill="white"/>
<path d="M2.72461 17.2246H11.8672V11.7754H2.72461C1.2222 11.7754 0 12.9976 0 14.5C0 16.0024 1.2222 17.2246 2.72461 17.2246Z" fill="white"/>
<path d="M28.2754 11.7754H19.1328V17.2246H28.2754C29.7778 17.2246 31 16.0024 31 14.5C31 12.9976 29.7778 11.7754 28.2754 11.7754Z" fill="white"/>
<path d="M28.2754 2.69336H5.44922V8.14258H28.2754C29.7778 8.14258 31 6.92038 31 5.41797C31 3.91556 29.7778 2.69336 28.2754 2.69336Z" fill="white"/>
<path d="M2.72461 26.3066H25.5508V20.8574H2.72461C1.2222 20.8574 0 22.0796 0 23.582C0 25.0844 1.2222 26.3066 2.72461 26.3066Z" fill="white"/>
</svg>
