<svg width="12" height="16" viewBox="0 0 12 16" fill="none" xmlns="http://www.w3.org/2000/svg">
<path fill-rule="evenodd" clip-rule="evenodd" d="M2.32961 3.52725C2.32961 1.70105 3.80972 0.220703 5.63612 0.220703C7.46252 0.220703 8.94262 1.70105 8.94262 3.52725C8.94262 5.35344 7.46252 6.83379 5.63612 6.83379C3.80972 6.83379 2.32961 5.35322 2.32961 3.52725ZM4.23335 7.05924C1.899 7.05924 0 8.95849 0 11.2926V14.7248L0.00879288 14.778L0.24552 14.8519C2.473 15.5477 4.40875 15.7801 6.00158 15.7801C9.11307 15.7801 10.9165 14.8927 11.0278 14.8364L11.2488 14.7241L11.2722 14.7243V11.2929C11.2725 8.95849 9.37346 7.05924 7.03889 7.05924H4.23335Z" fill="#D6D3D9"/>
</svg>
