<svg width="20" height="16" viewBox="0 0 20 16" fill="none" xmlns="http://www.w3.org/2000/svg">
<path d="M11.0572 3.52725C11.0572 1.70105 12.5373 0.220703 14.3637 0.220703C16.1901 0.220703 17.6702 1.70105 17.6702 3.52725C17.6702 5.35344 16.1901 6.83379 14.3637 6.83379C12.5373 6.83379 11.0572 5.35322 11.0572 3.52725ZM15.7664 7.05924H12.9609C10.6265 7.05924 8.72754 8.95849 8.72754 11.2926V14.7248L8.73633 14.778L8.97306 14.8519C11.2005 15.5477 13.1363 15.7801 14.7291 15.7801C17.8406 15.7801 19.644 14.8927 19.7554 14.8364L19.9763 14.7241L19.9998 14.7243V11.2929C20 8.95849 18.101 7.05924 15.7664 7.05924ZM5.63634 6.83379C7.46252 6.83379 8.94285 5.35344 8.94285 3.52725C8.94285 1.70105 7.46252 0.220703 5.63634 0.220703C3.81017 0.220703 2.32984 1.70105 2.32984 3.52725C2.32984 5.35344 3.81017 6.83379 5.63634 6.83379ZM7.96438 14.7248V11.2929C7.96438 9.92637 8.51561 8.68884 9.4039 7.78296C8.72822 7.32641 7.91433 7.05947 7.03934 7.05947H4.23357C1.89922 7.05924 0 8.95849 0 11.2929V14.7248L0.0087927 14.778L0.245745 14.8519C2.473 15.5477 4.40875 15.7801 6.0018 15.7801C7.01477 15.7801 7.88637 15.6854 8.60872 15.5569L8.06268 15.386L7.96438 14.7248Z" fill="#D6D3D9"/>
</svg>
