<svg xmlns="http://www.w3.org/2000/svg">
    <symbol  viewBox="0 0 202 49" xmlns="http://www.w3.org/2000/svg" id="gazprom-icon">
        <path d="M34.8766 19.2387C34.7223 19.393 34.5679 19.4959 34.3622 19.6502C33.179 20.5761 31.3272 21.2963 28.7552 21.965C23.4054 23.4053 19.4959 23.6111 15.072 24.6914C14.1975 24.8971 13.3231 25.2058 12.5 25.5144C13.3231 25.9259 14.1975 26.3374 15.1235 26.6461C16.9239 26.1317 17.7984 25.8745 20.3704 25.463C21.3478 25.3086 24.4342 24.7428 26.5947 24.2798C30.607 23.5082 36.4712 21.6564 34.8766 19.2387ZM32.356 14.1975C31.533 13.8374 30.4527 13.4259 29.321 13.1173C28.8066 13.5288 28.2408 13.8889 27.4177 14.1975C28.8066 14.4547 29.8869 14.8148 31.07 15.1749C31.2243 15.3292 32.2017 14.4547 32.356 14.1975ZM12.8087 19.5473C18.0041 18.0041 23.4568 17.5412 29.0124 16.0494C26.8519 15.4835 25.6688 15.2263 23.4054 15.4835C20.0617 15.8951 16.4609 16.6152 13.3231 17.5412C12.0885 17.9012 5.65844 19.7531 7.5103 22.3251C7.5103 22.3765 8.59054 20.8333 12.8087 19.5473ZM9.20783 28.3951C9.20783 28.858 9.46503 29.321 10.1338 29.8354C10.2366 29.5782 10.3395 29.3724 10.4938 29.1152C10.0823 28.9095 9.67079 28.6523 9.20783 28.3951ZM11.677 28.1379C12.0885 27.8807 12.5515 27.6749 13.0659 27.4691C12.3457 27.1605 11.5741 26.8004 10.8025 26.4918C10.4424 26.6975 10.1338 26.9547 9.87655 27.1605C10.4938 27.4691 11.0597 27.8292 11.677 28.1379ZM31.6873 17.0267C30.6585 17.4897 29.1153 18.0041 26.9548 18.57C25.2058 19.0329 20.8848 19.6502 16.2552 20.6276C14.7634 20.9362 10.8025 21.9136 8.84775 23.5597C9.41359 24.0226 9.72223 24.1255 10.3395 24.4342C11.1626 23.9198 12.2428 23.4053 13.8889 22.9938C16.7181 22.2222 18.8272 21.9136 21.3992 21.5021C23.9198 21.0905 28.7037 20.1132 31.3272 19.1358C32.2017 18.8272 32.9733 18.4156 33.5906 17.9527C33.4362 17.7984 31.7387 16.9753 31.6873 17.0267ZM33.2305 16.1008C33.7449 16.358 34.2079 16.5638 34.6708 16.8724C34.9795 16.2551 34.7737 15.8436 34.105 15.2778C33.8478 15.5864 33.5391 15.8436 33.2305 16.1008ZM9.00207 25.5144C8.5391 25.2572 8.23046 25.0514 7.81894 24.7942C7.61318 25.2572 8.0247 25.7716 8.43622 25.9774C8.59054 25.823 8.79631 25.7202 9.00207 25.5144ZM31.1214 11.1111C31.0186 11.4712 30.6585 11.8827 30.4013 12.1399C31.1729 12.3457 31.9959 12.6543 32.7161 12.9115C32.6132 12.2428 31.8416 11.5741 31.1214 11.1111ZM6.63581 15.535C12.0885 11.9342 18.107 9.8251 28.3436 11.6255C28.9095 11.3169 29.2181 11.0082 29.3725 10.3395C26.8004 9.41358 24.0741 9.10494 20.4733 9.15638C17.2325 9.25926 11.4712 10.4424 8.38478 12.2942L9.31071 11.1111C11.4712 9.8251 17.1296 8.12757 21.3478 8.07613C24.3313 8.02469 25.8745 8.17901 29.4239 9.15638C29.1153 8.53909 28.3951 8.23045 27.3148 7.76749C23.8683 6.22428 17.4897 6.06996 12.2428 8.38477C12.9115 7.97325 13.5803 7.56173 14.4033 7.15021C16.1523 6.3786 18.9815 5.607 22.4794 5.65844C25.3087 5.70988 28.6523 6.68724 30.7099 8.74486C31.07 9.15638 31.2243 9.5679 31.3272 9.92798C32.9733 10.751 33.8992 11.5226 34.4136 12.4486C34.6194 12.9115 34.7223 13.4259 34.6194 13.9918C35.2881 14.4033 35.5967 14.7119 35.9568 15.1749C36.214 15.535 36.3684 15.9465 36.4198 16.358C36.4712 16.8724 36.5227 17.4383 36.0083 18.107C36.5741 18.3642 36.9856 19.1358 37.0885 19.4959C37.3457 20.7305 36.5741 21.9136 35.4939 22.8395C34.3107 23.9198 31.6358 25.1543 29.5268 25.7202C25.2572 26.8004 21.5021 27.2634 18.4671 27.8292C19.8045 28.1379 21.6564 28.6008 24.6399 28.6008C31.0186 28.6008 36.6255 25.5658 36.6255 25.5658C36.6255 25.5658 36.5227 25.9774 36.3683 26.3374C32.3046 28.8066 25.8745 29.8354 23.1482 29.7325C20.3704 29.5782 18.0041 29.1667 15.6893 28.4979C14.9692 28.7037 14.3004 28.9095 13.6317 29.2181C17.1296 30.8128 19.7531 31.1728 22.7881 31.3786C25.8231 31.5844 30.8642 30.8642 35.1338 29.321C34.928 29.5267 34.8251 29.8354 34.6194 29.9897C32.4589 31.1214 27.8292 32.3045 25.5144 32.4074C23.1996 32.5103 20.3704 32.4074 17.9527 31.9444C15.8436 31.5329 14.1461 30.8642 12.3457 30.0926C12.037 30.3498 11.8313 30.6584 11.7798 31.0185C18.7757 34.7222 25.3601 34.7737 32.8704 32.4588L32.2017 33.1276C23.9712 36.4712 17.5412 35.1852 12.5515 32.7675C12.3971 32.716 12.1914 32.6132 12.037 32.5103C12.5 33.3333 16.3066 36.1111 20.5762 36.4712C23.5083 36.7284 27.1091 36.214 29.2181 35.3395L27.9836 36.0082C26.9548 36.5226 24.2284 37.6543 20.4218 37.3971C15.3292 37.037 12.5 34.7737 11.214 33.5905C10.5967 33.0247 10.3395 32.4074 10.1852 31.6358C8.95063 30.8642 8.23046 30.2469 7.61318 29.321C7.25309 28.7551 7.30453 28.1379 7.40741 27.6235C7.45886 27.4691 7.45886 27.3148 7.56174 27.1605C6.99589 26.749 6.43005 26.3374 6.22429 25.8745C5.70988 24.9486 6.01852 24.177 6.37861 23.5597C6.06996 23.1996 5.81276 22.8909 5.65844 22.5309C5.50412 22.1193 5.50412 21.7078 5.55556 21.2449C5.65844 20.4732 6.06997 19.8045 6.58437 19.1872C7.71606 17.9012 9.41359 16.9239 12.4486 15.8951C15.3807 14.9177 16.5638 14.7634 18.7757 14.249C21.3478 13.6317 24.4342 13.4774 27.0062 12.5514C19.8045 11.2654 12.3457 12.4486 6.27573 16.6667L6.63581 15.535ZM0.720165 21.4506C0.720165 10.0309 9.97943 0.771605 21.2963 0.771605C32.6646 0.771605 41.8725 10.0309 41.8725 21.4506C41.8725 32.8704 32.6132 42.1296 21.2963 42.1296C9.97943 42.1296 0.720165 32.8189 0.720165 21.4506ZM0 21.4506C0 33.2819 9.56791 42.8498 21.3478 42.8498C33.1276 42.8498 42.6955 33.2305 42.6955 21.4506C42.6441 9.61934 33.0762 0 21.3478 0C9.56791 0 0 9.61934 0 21.4506Z" fill="#476BF0"/>
        <path d="M68.6734 23.4054L69.4965 17.6955L70.3195 23.4054H68.6734ZM72.2228 12.037H66.7701L63.0664 30.8128H67.4388L67.9532 27.572H70.9882L71.5026 30.8128H75.8751L72.2228 12.037Z" fill="#476BF0"/>
        <path d="M80.0929 19.4959C80.8131 19.4959 82.0991 19.0329 82.0991 17.644C82.0991 15.9979 80.6073 15.895 80.1958 15.895C79.6814 15.895 78.7554 15.9979 77.8295 16.4094L77.7781 12.3457C79.2698 11.9856 80.2987 11.8313 81.5332 11.8827C85.0826 11.8827 86.6773 14.4033 86.6773 16.821C86.6773 19.1872 85.2884 20.6275 84.0024 21.1934V21.3992C85.2369 21.8107 86.9859 23.0452 86.9859 25.8745C86.9859 29.4238 84.5168 31.3786 81.3789 31.3786C79.6814 31.3786 78.6011 31.1214 77.2637 30.4012L77.3151 26.4917C78.5497 27.0061 79.3727 27.0576 80.1958 27.0576C81.5847 27.0576 82.1505 26.0288 82.1505 25.2572C82.1505 24.1769 81.4818 23.5082 79.99 23.5082H78.241V19.4959H80.0929Z" fill="#476BF0"/>
        <path d="M88.9922 12.037H100.823V30.7613H96.451V16.5638H93.3132V30.7613H88.9922V12.037Z" fill="#476BF0"/>
        <path d="M108.642 20.4733H107.614V16.1523H108.642C109.62 16.1523 110.237 16.7181 110.237 18.3128C110.237 20.3189 109.208 20.4733 108.642 20.4733ZM109.054 12.037H103.241V30.8128H107.562V24.6399H109.003C113.272 24.6399 114.61 20.7819 114.61 18.3128C114.661 15.8436 113.169 12.037 109.054 12.037Z" fill="#476BF0"/>
        <path d="M122.685 26.4918C121.142 26.4918 120.371 24.6914 120.371 21.3992C120.371 18.107 121.142 16.3066 122.685 16.3066C124.229 16.3066 125 18.107 125 21.3992C125 24.6914 124.229 26.4918 122.685 26.4918ZM122.685 11.7798C117.541 11.7798 115.844 16.6152 115.844 21.3992C115.844 26.2346 117.593 31.0185 122.685 31.0185C127.829 31.0185 129.578 26.1831 129.578 21.3992C129.578 16.5638 127.829 11.7798 122.685 11.7798Z" fill="#476BF0"/>
        <path d="M153.293 27.0062H152.676V22.7366H153.293C153.807 22.7366 155.145 22.7881 155.145 24.6914C155.196 26.6975 153.807 27.0062 153.293 27.0062ZM153.447 19.0329H152.676V16.5638H158.386V12.037H148.406V30.8128H153.602C154.733 30.8128 159.414 30.3498 159.414 24.6914C159.414 19.856 155.814 19.0329 153.447 19.0329Z" fill="#476BF0"/>
        <path d="M175 12.037H179.27V18.7757H182.305V12.037H186.523V30.7613H182.305V23.3025H179.27V30.7613H175V12.037Z" fill="#476BF0"/>
        <path d="M189.352 12.037H193.621V18.7757H194.496L196.965 12.037H201.543L198.251 20.9362L202.006 30.7613H197.016L194.598 23.251H193.621V30.7613H189.352V12.037Z" fill="#476BF0"/>
        <path d="M54.5967 12.037H63.4959V16.7181H59.0206V30.8128L54.5967 30.7613V12.037Z" fill="#476BF0"/>
        <path d="M131.636 12.037H135.339L138.58 16.4609L141.821 12.037H145.525V30.7613H141.204V19.3416L138.58 22.6338L135.957 19.3416V30.8128L131.636 30.7613V12.037Z" fill="#476BF0"/>
        <path d="M165.895 23.4568L166.718 17.7469L167.541 23.4568H165.895ZM169.444 12.037H163.992L160.288 30.8128H164.661L165.175 27.572H168.21L168.724 30.8128H173.097L169.444 12.037Z" fill="#476BF0"/>
        <path fill-rule="evenodd" clip-rule="evenodd" d="M60.0801 38.9402H54.5967V48.191H57.7236C59.645 48.191 60.8082 47.0158 60.8082 45.4448C60.8082 43.8738 59.645 42.7257 57.7236 42.7257H55.6903V39.9221H60.0801V38.9402ZM59.6723 45.4569C59.6723 46.4539 58.9986 47.2122 57.7086 47.2122H55.6904V43.7077H57.7086C58.9986 43.7077 59.6723 44.46 59.6723 45.4569Z" fill="#80838F"/>
        <path d="M70.0322 38.7845V48.1894H68.9385V41.0142L62.9113 48.3435H62.5186V38.9386H63.6122V46.1169L69.6545 38.7845H70.0322Z" fill="#80838F"/>
        <path d="M78.5973 45.4952C78.5973 47.1659 77.1683 48.3411 75.2741 48.3411C73.8213 48.3606 72.4753 47.5808 71.7695 46.3109L72.5671 45.7067C73.1865 46.6583 74.1109 47.3169 75.259 47.3169C76.4946 47.3169 77.4614 46.5465 77.4614 45.4529C77.4614 44.5284 76.8149 43.7701 75.3013 43.7701H74.2076V42.7761H75.3587C76.4372 42.7761 76.9568 42.1447 76.9568 41.3048C76.9568 40.465 76.4251 39.7761 75.2741 39.7761C74.3496 39.7612 73.4881 40.2433 73.0173 41.039L72.2318 40.4499C72.8591 39.372 74.0276 38.7256 75.2741 38.7671C77.0263 38.7671 78.0928 39.8456 78.0928 41.2474C78.0982 42.0414 77.6742 42.7763 76.984 43.1689C77.9727 43.5081 78.6261 44.4504 78.5973 45.4952Z" fill="#80838F"/>
        <path d="M80.5127 38.9402H81.6064V42.7529H86.7937V38.9402H87.8873V48.191H86.7937V43.7348H81.6064V48.191H80.5127V38.9402Z" fill="#80838F"/>
        <path d="M90.3379 38.9402H96.2684V39.9221H91.4346V42.7529H95.1355V43.7348H91.4315V47.2121H96.4376V48.191H90.3379V38.9402Z" fill="#80838F"/>
        <path d="M97.1623 43.5648C97.1515 42.2871 97.6571 41.0592 98.5642 40.1594C99.4714 39.2596 100.703 38.7642 101.981 38.7854C103.516 38.756 104.961 39.5052 105.821 40.7763L105.002 41.4198C104.343 40.3931 103.201 39.7778 101.981 39.7914C99.8954 39.7914 98.2046 41.4822 98.2046 43.5679C98.2046 45.6535 99.8954 47.3443 101.981 47.3443C103.201 47.3585 104.342 46.7445 105.002 45.7189L105.815 46.3624C104.96 47.6356 103.514 48.3833 101.981 48.3443C100.703 48.3664 99.4707 47.8712 98.5633 46.9712C97.656 46.0712 97.1507 44.8428 97.1623 43.5648Z" fill="#80838F"/>
        <path d="M106.513 42.7642H109.866V43.6706H106.513V42.7642Z" fill="#80838F"/>
        <path fill-rule="evenodd" clip-rule="evenodd" d="M114.44 39.1163C112.646 39.8656 111.481 41.623 111.489 43.5671C111.478 44.8408 111.98 46.0654 112.882 46.9647C113.784 47.8639 115.01 48.362 116.284 48.3465C118.228 48.349 119.982 47.1786 120.725 45.3823C121.469 43.586 121.056 41.5186 119.679 40.146C118.302 38.7735 116.234 38.3669 114.44 39.1163ZM116.29 39.7973C118.378 39.7973 119.949 41.4227 119.949 43.5526H119.955C119.955 45.7127 118.414 47.3472 116.296 47.3472C114.178 47.3472 112.616 45.6946 112.616 43.5526C112.616 41.4106 114.202 39.7973 116.29 39.7973Z" fill="#80838F"/>
        <path d="M122.936 38.9402H124.035V42.7529H129.223V38.9402H130.316V48.191H129.223V43.7348H124.035V48.191H122.942L122.936 38.9402Z" fill="#80838F"/>
        <path d="M139.831 38.9402V48.191H138.737V39.9221H135.111C134.915 46.2001 134.172 48.2907 132.266 48.2907C132.078 48.3017 131.89 48.2675 131.719 48.191V47.2393C131.842 47.2727 131.969 47.287 132.096 47.2816C133.541 47.2816 133.963 44.6321 134.06 40.333L134.087 38.9463L139.831 38.9402Z" fill="#80838F"/>
        <path fill-rule="evenodd" clip-rule="evenodd" d="M143.394 46.3082H147.926L148.721 48.1844H149.884L145.875 38.7795H145.47L141.461 48.1844H142.609L143.394 46.3082ZM143.807 45.3257L145.656 40.7698L147.508 45.3257H143.807Z" fill="#80838F"/>
        <path fill-rule="evenodd" clip-rule="evenodd" d="M153.482 35.5621V35.9125C153.482 37.2568 154.292 38.1419 155.582 38.1419C156.872 38.1419 157.712 37.2568 157.712 35.9125V35.5621H156.805V35.9277C156.805 36.8248 156.358 37.3293 155.597 37.3293C154.836 37.3293 154.389 36.8097 154.389 35.9277V35.5621H153.482ZM159.369 48.3126V38.9088H158.977L152.95 46.2403V39.0628H151.856V48.4666H152.249L158.276 41.1381V48.3126H159.369Z" fill="#80838F"/>
        <path d="M161.468 38.9402H162.561V42.7529H167.749V38.9402H168.842V48.191H167.749V43.7348H162.561V48.191H161.468V38.9402Z" fill="#80838F"/>
        </symbol>

    <symbol viewBox="0 0 56 56" xmlns="http://www.w3.org/2000/svg" id="markswebb-icon">
        <path d="M28 8C39.0457 8 48 16.9543 48 28C48 39.0457 39.0457 48 28 48C16.9543 48 8 39.0457 8 28C8 16.9543 16.9543 8 28 8Z" fill="white"/>
        <path opacity="0.8" d="M20.8 21H16V25.666H20.8V21ZM30.401 21H25.601V25.666H30.401V21Z" fill="#758592"/>
        <path opacity="0.64" d="M40.003 21H35.203V25.666H40.003V21Z" fill="#758592"/>
        <path opacity="0.8" d="M20.8 25.666H16V30.332H20.8V25.666Z" fill="#758592"/>
        <path opacity="0.8" d="M25.597 25.666H20.797V30.332H25.597V25.666ZM30.401 25.666H25.601V30.332H30.401V25.666Z" fill="#758592"/>
        <path opacity="0.64" d="M35.198 25.666H30.3979V30.332H35.198V25.666Z" fill="#758592"/>
        <path opacity="0.8" d="M40.003 25.666H35.203V30.332H40.003V25.666ZM20.8 30.334H16V35H20.8V30.334Z" fill="#758592"/>
        <path opacity="0.8" d="M25.597 30.334H20.797V35H25.597V30.334Z" fill="#758592"/>
        <path opacity="0.56" d="M30.401 30.334H25.601V35H30.401V30.334Z" fill="#758592"/>
        <path opacity="0.64" d="M35.198 30.334H30.3979V35H35.198V30.334ZM40.0029 30.334H35.2029V35H40.0029V30.334Z" fill="#758592"/>
        <path d="M20.8 21H16V34.998H25.6V25.666H20.8V21Z" fill="url(#paint0_linear_2_332)"/>
        <path d="M30.4 21H25.6V34.998H35.2V25.666H30.4V21Z" fill="url(#paint1_linear_2_332)"/>
        <path d="M35.2 21H40V34.998H35.2V21Z" fill="url(#paint2_linear_2_332)"/>
        <defs>
        <filter id="filter0_d_2_332" x="0" y="0" width="56" height="56" filterUnits="userSpaceOnUse" color-interpolation-filters="sRGB">
        <feFlood flood-opacity="0" result="BackgroundImageFix"/>
        <feColorMatrix in="SourceAlpha" type="matrix" values="0 0 0 0 0 0 0 0 0 0 0 0 0 0 0 0 0 0 127 0" result="hardAlpha"/>
        <feOffset/>
        <feGaussianBlur stdDeviation="4"/>
        <feComposite in2="hardAlpha" operator="out"/>
        <feColorMatrix type="matrix" values="0 0 0 0 0 0 0 0 0 0 0 0 0 0 0 0 0 0 0.08 0"/>
        <feBlend mode="normal" in2="BackgroundImageFix" result="effect1_dropShadow_2_332"/>
        <feBlend mode="normal" in="SourceGraphic" in2="effect1_dropShadow_2_332" result="shape"/>
        </filter>
        <linearGradient id="paint0_linear_2_332" x1="34.5" y1="17.663" x2="22.093" y2="36.246" gradientUnits="userSpaceOnUse">
        <stop stop-color="white"/>
        <stop offset="1" stop-color="white" stop-opacity="0"/>
        </linearGradient>
        <linearGradient id="paint1_linear_2_332" x1="34.5" y1="17.663" x2="22.093" y2="36.246" gradientUnits="userSpaceOnUse">
        <stop stop-color="white"/>
        <stop offset="1" stop-color="white" stop-opacity="0"/>
        </linearGradient>
        <linearGradient id="paint2_linear_2_332" x1="34.5" y1="17.663" x2="22.0929" y2="36.246" gradientUnits="userSpaceOnUse">
        <stop stop-color="white"/>
        <stop offset="1" stop-color="white" stop-opacity="0"/>
        </linearGradient>
        <clipPath id="clip0_2_332">
        <rect width="56" height="56" fill="white"/>
        </clipPath>
        </defs>
        </symbol>
    <symbol viewBox="0 0 32 32" xmlns="http://www.w3.org/2000/svg" id="logo-gpb">
        <circle cx="16" cy="16" r="16" fill="white"/>
        <path d="M9.42822 10.8653C10.0479 10.6755 10.6045 10.3285 11.1092 9.92191C12.4472 8.84386 14.1486 8.19846 16 8.19846C17.7574 8.19846 19.3763 8.77787 20.6804 9.75804C20.5387 9.84873 20.3703 9.94034 20.172 10.0317C19.129 10.512 17.6707 10.8104 16.187 11.1141L15.8182 11.1897C12.9175 11.7869 10.453 12.3337 8.53762 13.0694C8.26338 13.1747 8.00122 13.2835 7.75027 13.397C6.99999 13.7363 6.48902 14.4509 6.42744 15.272C6.419 15.3845 6.41249 15.4973 6.40792 15.6103C6.39459 15.9404 6.38792 16.1055 6.47155 16.1616C6.48343 16.1696 6.49435 16.1753 6.50772 16.1803C6.60183 16.2162 6.74629 16.105 7.03523 15.8826C7.30155 15.6776 7.61016 15.4821 7.96571 15.2942C9.73882 14.3569 12.4372 13.7235 16.1812 12.9527C16.3144 12.9253 16.4505 12.8976 16.5888 12.8694C18.0128 12.5794 19.6805 12.2397 20.9249 11.6666C21.6129 11.3498 22.2896 10.9115 22.7129 10.2651C23.0042 9.82038 22.845 9.24684 22.4514 8.88947C20.7469 7.34167 18.4835 6.39844 15.9998 6.39844C12.6394 6.39844 9.6823 8.12497 7.96714 10.7393C7.76936 11.0408 7.67047 11.1915 7.72872 11.2885C7.73628 11.301 7.74593 11.3133 7.75636 11.3237C7.83672 11.4032 8.01414 11.3402 8.36897 11.2141C8.71071 11.0927 9.06415 10.9767 9.42822 10.8653Z" fill="#1E222E" fill-opacity="0.56"/>
        <path d="M24.6516 11.8333C24.5351 11.5918 24.4769 11.4711 24.4096 11.4457C24.3674 11.4297 24.3348 11.4288 24.2917 11.4424C24.2231 11.4641 24.1458 11.6042 23.9911 11.8845C23.7383 12.3423 23.3041 12.7526 22.6104 13.1354C21.1715 13.9293 18.9231 14.451 15.8209 15.1157C12.8141 15.7601 10.2624 16.3292 8.53766 17.2808C8.31583 17.4032 8.10333 17.5341 7.90201 17.6749C7.11449 18.2255 6.92273 19.2765 7.3381 20.143C7.34138 20.1499 7.34467 20.1567 7.34796 20.1635C7.46435 20.4049 7.52255 20.5255 7.58973 20.551C7.63207 20.567 7.66471 20.5679 7.70787 20.5542C7.77634 20.5325 7.85365 20.3925 8.00827 20.1124C8.26105 19.6545 8.6952 19.2442 9.38897 18.8615C10.8279 18.0676 13.0762 17.5458 16.1783 16.8811C19.1852 16.2368 21.7369 15.6676 23.4617 14.7161C23.6836 14.5936 23.8962 14.4627 24.0976 14.3218C24.8851 13.7712 25.0768 12.7202 24.6614 11.8537C24.6581 11.8469 24.6549 11.8401 24.6516 11.8333Z" fill="#1E222E" fill-opacity="0.56"/>
        <path d="M25.592 16.3745C25.6051 16.0424 25.6116 15.8764 25.5277 15.8204C25.5158 15.8125 25.5049 15.8068 25.4914 15.8018C25.3971 15.7661 25.2521 15.8785 24.9621 16.1034C24.6926 16.3124 24.3794 16.5115 24.0175 16.7027C22.2444 17.6399 19.546 18.2734 15.802 19.0442C15.6699 19.0714 15.5349 19.0989 15.3976 19.1268L15.3944 19.1275C13.9704 19.4175 12.3027 19.7572 11.0583 20.3303C10.3703 20.6471 9.69359 21.0854 9.27026 21.7318C8.98405 22.1688 9.13809 22.7326 9.52364 23.0852C11.2309 24.6462 13.5041 25.5984 15.9998 25.5984C19.3634 25.5984 22.3229 23.8686 24.0374 21.2499C24.2349 20.9481 24.3337 20.7972 24.2754 20.7004C24.2678 20.6878 24.2582 20.6755 24.2477 20.6652C24.1673 20.5857 23.9898 20.649 23.6349 20.7755C23.2868 20.8995 22.9265 21.0179 22.5552 21.1316C21.9355 21.3213 21.3789 21.6684 20.8742 22.075C19.5362 23.153 17.8348 23.7984 15.9834 23.7984C14.2259 23.7984 12.607 23.219 11.3029 22.2388C11.4446 22.1481 11.613 22.0565 11.8113 21.9652C12.8543 21.4849 14.3126 21.1864 15.7962 20.8828L16.165 20.8072C19.1519 20.1923 21.6761 19.6307 23.6147 18.8615C23.8362 18.7736 24.0495 18.6833 24.2551 18.5898C25.0035 18.2496 25.5121 17.5353 25.5728 16.7155C25.5811 16.6021 25.5876 16.4884 25.592 16.3745Z" fill="#1E222E" fill-opacity="0.56"/>
    </symbol>
    <symbol viewBox="0 0 16 16"  xmlns="http://www.w3.org/2000/svg" id="phone-icon" fill="currentColor">
        <path  d="M4.83898 3.768C4.34891 3.06808 3.85423 2.3714 3.35498 1.678C3.31298 1.62 3.23798 1.505 3.15298 1.5C3.11498 1.498 2.92498 1.51 2.59698 1.758C1.63298 2.488 1.24498 3.602 1.66698 5.242C2.06098 6.772 3.31098 9.015 5.14798 10.852C6.98498 12.689 9.22798 13.939 10.758 14.332C12.398 14.755 13.512 14.367 14.242 13.403C14.49 13.075 14.502 12.885 14.5 12.847C14.495 12.762 14.38 12.687 14.322 12.645C13.866 12.313 13.023 11.717 12.232 11.161C11.942 10.957 11.778 10.844 11.652 10.766C11.48 10.66 11.36 10.748 11.223 10.881C11.01 11.088 10.811 11.315 10.57 11.491C10.2672 11.7131 9.90602 11.8418 9.53098 11.861C8.97498 11.889 8.47898 11.659 8.06298 11.308C6.82694 10.2977 5.69528 9.16604 4.68498 7.93C4.33298 7.512 4.10698 7.01 4.13998 6.452C4.16698 5.997 4.34798 5.652 4.51398 5.425C4.68798 5.186 4.91398 4.989 5.11898 4.778C5.24898 4.644 5.34898 4.536 5.23398 4.348C5.10752 4.1515 4.97581 3.95743 4.83898 3.768ZM4.56898 0.794997C4.90898 1.263 5.51098 2.116 6.06598 2.905C6.45298 3.457 6.64598 3.732 6.72798 4.023C6.84298 4.433 6.81998 4.839 6.62098 5.256C6.49098 5.528 6.35098 5.668 5.87298 6.146C5.75898 6.259 5.64698 6.37 5.63698 6.539C5.62698 6.713 5.72898 6.837 5.83298 6.963C6.78429 8.1279 7.84957 9.19487 9.01298 10.148C9.13898 10.251 9.28498 10.372 9.45598 10.363C9.62798 10.355 9.73998 10.241 9.85498 10.126C10.333 9.648 10.472 9.509 10.744 9.379C11.1291 9.19769 11.5664 9.15975 11.977 9.272C12.267 9.353 12.543 9.547 13.094 9.934C13.884 10.489 14.737 11.091 15.204 11.432C16.231 12.178 16.215 13.282 15.438 14.308C14.258 15.866 12.462 16.32 10.384 15.785C8.54798 15.314 6.07798 13.903 4.08698 11.913C2.09698 9.923 0.686984 7.452 0.213984 5.616C-0.320016 3.538 0.133984 1.741 1.69198 0.561997C2.71798 -0.215003 3.82298 -0.231003 4.56898 0.794997Z" fill="currentColor"/>
    </symbol>
    <symbol viewBox="0 0 18 15" xmlns="http://www.w3.org/2000/svg" id="telegram-icon" fill="currentColor">
        <path  d="M1.68812 6.415C5.47012 4.829 10.0441 2.573 14.0081 1.048C17.6681 -0.296998 17.6071 0.0700016 17.0581 3.731C16.6301 6.659 16.1411 9.586 15.6551 12.514C15.4721 13.916 14.7381 14.648 13.2151 13.798L8.45812 10.443C7.78612 9.893 7.96912 9.465 8.51912 8.919L12.9101 4.77C14.0721 3.609 13.5211 3.184 12.1771 4.098L6.13912 8.184C5.28312 8.795 4.37012 8.795 3.39412 8.49L1.32112 7.756C-0.0238811 7.267 1.01512 6.716 1.68812 6.414V6.415Z" fill="currentColor"/>
    </symbol>
    <symbol  viewBox="0 0 16 16" xmlns="http://www.w3.org/2000/svg" id="dark-icon">
        <path fill-rule="evenodd" clip-rule="evenodd" d="M4.57104 0.770003C5.5205 0.319766 6.54934 0.0609472 7.59882 0.00832395C8.64831 -0.0442993 9.69788 0.110304 10.6876 0.463306C11.6773 0.816307 12.5879 1.3608 13.3672 2.06568C14.1465 2.77057 14.7793 3.62205 15.2295 4.5715C15.6798 5.52096 15.9386 6.5498 15.9912 7.59928C16.0438 8.64877 15.8892 9.69834 15.5362 10.6881C15.1832 11.6778 14.6388 12.5883 13.9339 13.3676C13.229 14.1469 12.3775 14.7798 11.428 15.23C9.51053 16.1392 7.31039 16.2494 5.31162 15.5363C3.31286 14.8233 1.67921 13.3455 0.770044 11.428C-0.139118 9.51049 -0.249313 7.31035 0.4637 5.31158C1.17671 3.31282 2.65353 1.67917 4.57104 0.770003ZM14.857 8C14.8575 9.08885 14.5986 10.1622 14.1019 11.1311C13.6051 12.1 12.8848 12.9367 12.0004 13.572C11.1161 14.2072 10.0932 14.6227 9.01635 14.7841C7.93953 14.9455 6.83976 14.8481 5.80804 14.5C6.8407 13.7598 7.68194 12.7839 8.26195 11.6535C8.84196 10.523 9.14401 9.27057 9.14304 8C9.14401 6.72944 8.84196 5.47697 8.26195 4.34652C7.68194 3.21607 6.8407 2.24024 5.80804 1.5C6.83976 1.15193 7.93953 1.05455 9.01635 1.21594C10.0932 1.37732 11.1161 1.79282 12.0004 2.42805C12.8848 3.06329 13.6051 3.89999 14.1019 4.86892C14.5986 5.83786 14.8575 6.91116 14.857 8Z" fill="#767A85"/>
    </symbol>
    <symbol  viewBox="0 0 24 24" xmlns="http://www.w3.org/2000/svg" id="login-icon" fill="currentColor">
        <path fill-rule="evenodd"  clip-rule="evenodd" d="M12.0001 4.0166C9.77715 4.0166 7.9751 5.81866 7.9751 8.0416C7.9751 10.2645 9.77715 12.0666 12.0001 12.0666C14.223 12.0666 16.0251 10.2645 16.0251 8.0416C16.0251 5.81866 14.223 4.0166 12.0001 4.0166ZM6.4751 8.0416C6.4751 4.99023 8.94872 2.5166 12.0001 2.5166C15.0515 2.5166 17.5251 4.99023 17.5251 8.0416C17.5251 11.093 15.0515 13.5666 12.0001 13.5666C8.94872 13.5666 6.4751 11.093 6.4751 8.0416Z" fill="currentColor"/>
        <path d="M11.9996 13.5833C10.1687 13.5831 8.3955 14.2243 6.98813 15.3954C5.58112 16.5663 4.6286 18.193 4.29593 19.993C4.29584 19.9934 4.29575 19.9939 4.29566 19.9944L3.98787 21.6998L2.51172 21.4334L2.82032 19.7236L2.82059 19.7221C3.21667 17.5768 4.35174 15.6379 6.02864 14.2425C7.70553 12.847 9.81829 12.083 11.9999 12.0833L12 12.0833C14.1842 12.0838 16.299 12.8503 17.9762 14.2494C19.6535 15.6485 20.787 17.5915 21.1793 19.7402L21.1794 19.741L21.4879 21.45L20.0117 21.7165L19.7037 20.0096C19.7036 20.0093 19.7036 20.0091 19.7035 20.0088C19.3741 18.2058 18.4229 16.5753 17.0154 15.4013C15.6077 14.2271 13.8328 13.5837 11.9997 13.5833" fill="currentColor"/>
    </symbol>
    <symbol viewBox="0 0 24 24" xmlns="http://www.w3.org/2000/svg" id="password-icon" fill="currentColor">
        <path fill-rule="evenodd"  d="M20.5303 4.53033C20.8232 4.23744 20.8232 3.76256 20.5303 3.46967C20.2374 3.17678 19.7626 3.17678 19.4697 3.46967L3.46967 19.4697C3.17678 19.7626 3.17678 20.2374 3.46967 20.5303C3.76256 20.8232 4.23744 20.8232 4.53033 20.5303L7.37723 17.6834C8.74353 18.3266 10.3172 18.75 12 18.75C14.684 18.75 17.0903 17.6729 18.8206 16.345C19.6874 15.6797 20.4032 14.9376 20.9089 14.2089C21.4006 13.5003 21.75 12.7227 21.75 12C21.75 11.2773 21.4006 10.4997 20.9089 9.79115C20.4032 9.06244 19.6874 8.32028 18.8206 7.65503C18.5585 7.45385 18.2808 7.25842 17.989 7.07163L20.5303 4.53033ZM16.8995 8.16113L15.1287 9.93196C15.5213 10.5248 15.75 11.2357 15.75 12C15.75 14.0711 14.0711 15.75 12 15.75C11.2357 15.75 10.5248 15.5213 9.93196 15.1287L8.51524 16.5454C9.58077 16.9795 10.7621 17.25 12 17.25C14.2865 17.25 16.3802 16.3271 17.9073 15.155C18.6692 14.5703 19.2714 13.9374 19.6766 13.3536C20.0957 12.7497 20.25 12.2773 20.25 12C20.25 11.7227 20.0957 11.2503 19.6766 10.6464C19.2714 10.0626 18.6692 9.42972 17.9073 8.84497C17.5941 8.60461 17.2571 8.37472 16.8995 8.16113ZM11.0299 14.0307C11.3237 14.1713 11.6526 14.25 12 14.25C13.2426 14.25 14.25 13.2426 14.25 12C14.25 11.6526 14.1713 11.3237 14.0307 11.0299L11.0299 14.0307Z" fill="currentColor"/>
        <path d="M12 5.25C13.0323 5.25 14.0236 5.40934 14.9511 5.68101C15.1296 5.73328 15.1827 5.95662 15.0513 6.0881L14.2267 6.91265C14.1648 6.97451 14.0752 6.99928 13.99 6.97967C13.3506 6.83257 12.6839 6.75 12 6.75C9.71345 6.75 7.61978 7.67292 6.09267 8.84497C5.33078 9.42972 4.72857 10.0626 4.32343 10.6464C3.90431 11.2503 3.75 11.7227 3.75 12C3.75 12.2773 3.90431 12.7497 4.32343 13.3536C4.67725 13.8635 5.18138 14.4107 5.81091 14.9307C5.92677 15.0264 5.93781 15.2015 5.83156 15.3078L5.12265 16.0167C5.03234 16.107 4.88823 16.1149 4.79037 16.0329C4.09739 15.4517 3.51902 14.8255 3.0911 14.2089C2.59937 13.5003 2.25 12.7227 2.25 12C2.25 11.2773 2.59937 10.4997 3.0911 9.79115C3.59681 9.06244 4.31262 8.32028 5.17941 7.65503C6.90965 6.32708 9.31598 5.25 12 5.25Z" fill="currentColor"/>
        <path d="M12 8.25C12.1185 8.25 12.2357 8.25549 12.3513 8.26624C12.5482 8.28453 12.6194 8.51991 12.4796 8.6597L11.2674 9.87196C10.6141 10.0968 10.0968 10.6141 9.87196 11.2674L8.6597 12.4796C8.51991 12.6194 8.28453 12.5482 8.26624 12.3513C8.25549 12.2357 8.25 12.1185 8.25 12C8.25 9.92893 9.92893 8.25 12 8.25Z" fill="currentColor"/>
    </symbol>
    <symbol viewBox="0 0 20 20" id="back-icon" fill="currentColor" xmlns="http://www.w3.org/2000/svg">
        <path d="M18.3333 9.16669H3.67832L8.08915 4.75586C8.16874 4.67899 8.23223 4.58703 8.2759 4.48536C8.31958 4.38369 8.34257 4.27434 8.34353 4.16369C8.34449 4.05305 8.3234 3.94331 8.2815 3.8409C8.2396 3.73848 8.17772 3.64544 8.09948 3.5672C8.02124 3.48895 7.92819 3.42708 7.82578 3.38518C7.72337 3.34327 7.61363 3.32219 7.50298 3.32315C7.39233 3.32411 7.28298 3.3471 7.18131 3.39078C7.07964 3.43445 6.98769 3.49794 6.91082 3.57753L1.07748 9.41086C0.921259 9.56713 0.833496 9.77906 0.833496 10C0.833496 10.221 0.921259 10.4329 1.07748 10.5892L6.91082 16.4225C7.06799 16.5743 7.27849 16.6583 7.49699 16.6564C7.71548 16.6545 7.92449 16.5669 8.079 16.4124C8.23351 16.2579 8.32115 16.0489 8.32305 15.8304C8.32494 15.6119 8.24095 15.4014 8.08915 15.2442L3.67832 10.8334H18.3333C18.5543 10.8334 18.7663 10.7456 18.9226 10.5893C19.0789 10.433 19.1667 10.221 19.1667 10C19.1667 9.77901 19.0789 9.56705 18.9226 9.41077C18.7663 9.25449 18.5543 9.16669 18.3333 9.16669Z" fill="#1E222E"/>
    </symbol>
    <symbol viewBox="0 0 12 14" fill="none" id="refresh-icon" xmlns="http://www.w3.org/2000/svg">
    <path d="M5.40301 0.182994C5.46105 0.12494 5.52996 0.0788885 5.6058 0.047469C5.68163 0.0160495 5.76292 -0.00012207 5.84501 -0.00012207C5.9271 -0.00012207 6.00839 0.0160495 6.08423 0.047469C6.16007 0.0788885 6.22897 0.12494 6.28701 0.182994L8.97701 2.87299C9.03506 2.93103 9.08112 2.99994 9.11254 3.07578C9.14396 3.15162 9.16013 3.2329 9.16013 3.31499C9.16013 3.39708 9.14396 3.47837 9.11254 3.55421C9.08112 3.63005 9.03506 3.69896 8.97701 3.75699L6.28701 6.44699C6.2289 6.50504 6.15993 6.55107 6.08403 6.58246C6.00813 6.61385 5.92679 6.62998 5.84466 6.62993C5.76252 6.62988 5.6812 6.61366 5.60534 6.58219C5.52948 6.55071 5.46056 6.5046 5.40251 6.44649C5.34447 6.38838 5.29844 6.31941 5.26705 6.24351C5.23566 6.16761 5.21953 6.08627 5.21957 6.00414C5.21962 5.92201 5.23584 5.84069 5.26732 5.76482C5.29879 5.68896 5.3449 5.62004 5.40301 5.56199L7.02601 3.93999H6.00001C5.12898 3.93999 4.27751 4.19828 3.55328 4.6822C2.82905 5.16612 2.26457 5.85393 1.93125 6.65866C1.59792 7.46338 1.5107 8.34888 1.68063 9.20317C1.85056 10.0575 2.27 10.8422 2.88591 11.4581C3.50182 12.074 4.28654 12.4934 5.14083 12.6634C5.99513 12.8333 6.88062 12.7461 7.68535 12.4128C8.49008 12.0794 9.17788 11.515 9.6618 10.7907C10.1457 10.0665 10.404 9.21502 10.404 8.34399C10.404 8.17823 10.4699 8.01926 10.5871 7.90205C10.7043 7.78484 10.8633 7.71899 11.029 7.71899C11.1948 7.71899 11.3537 7.78484 11.471 7.90205C11.5882 8.01926 11.654 8.17823 11.654 8.34399C11.654 9.46225 11.3224 10.5554 10.7011 11.4852C10.0799 12.415 9.19684 13.1397 8.1637 13.5676C7.13057 13.9955 5.99374 14.1075 4.89697 13.8894C3.8002 13.6712 2.79276 13.1327 2.00203 12.342C1.2113 11.5513 0.672812 10.5438 0.454651 9.44703C0.23649 8.35027 0.348458 7.21344 0.776396 6.1803C1.20433 5.14717 1.92902 4.26413 2.85882 3.64287C3.78861 3.0216 4.88176 2.68999 6.00001 2.68999H7.02601L5.40301 1.06699C5.34496 1.00896 5.2989 0.940049 5.26749 0.86421C5.23607 0.78837 5.21989 0.707084 5.21989 0.624994C5.21989 0.542904 5.23607 0.461618 5.26749 0.385779C5.2989 0.30994 5.34496 0.241033 5.40301 0.182994Z" fill="#8F939F"/>
    </symbol>

</svg>
